<?xml version="1.0" encoding="utf-8"?>
<!-- Generator: Adobe Illustrator 24.0.0, SVG Export Plug-In . SVG Version: 6.00 Build 0)  -->
<svg version="1.1" id="Layer_1" xmlns="http://www.w3.org/2000/svg" xmlns:xlink="http://www.w3.org/1999/xlink" x="0px" y="0px"
	 viewBox="0 0 462.3 214" style="enable-background:new 0 0 462.3 214;" xml:space="preserve">
<style type="text/css">
	.st0{fill:#DFD9CE;}
</style>
<g id="ongoing-matter-logo-white_2_" transform="translate(-98.9 -126.9)">
	<g id="Group_63">
		<path id="Path_57" class="st0" d="M125.7,146.9c0-4.1-2.4-6.8-6.6-6.8s-6.6,2.8-6.6,6.8v49.4c0,4.1,2.4,6.8,6.6,6.8
			s6.6-2.8,6.6-6.8V146.9z M119.1,215.3c-12.2,0-20.2-8.2-20.2-20v-47.4c0-11.7,8-20,20.2-20s20.2,8.4,20.2,20v47.4
			C139.3,207,131.3,215.3,119.1,215.3"/>
	</g>
	<path id="Path_58" class="st0" d="M189.1,213.8l-14.2-38.3l-4.7-12.9v51.2H158v-84.4h11.9l13.2,38.6l4.3,13.1v-51.7h12.1v84.4
		L189.1,213.8z"/>
	<g id="Group_64">
		<path id="Path_59" class="st0" d="M251.7,139.3c-13.1,0-19.4,8.6-19.4,18.5v27.7c0,9.9,6.6,18.4,19.1,18.4
			c11.2,0,17.4-7.6,17.4-16.2v-6.5h-16.6v-11.7h30.3v44.2h-7.7l-2.3-8.5c-4.6,6.8-12.5,10.9-22.8,10.9c-21,0-31.4-14.4-31.4-31.4
			v-26c0-17.1,11.4-31.8,33.5-31.8c18.6,0,30.8,11.7,30.8,25.8v3.3h-13.8v-2C268.6,144.7,261.9,139.3,251.7,139.3"/>
		<path id="Path_60" class="st0" d="M342.3,153.7c0-8.6-4.3-14.7-13.8-14.7c-9.4,0-13.7,6.1-13.7,14.7v35.7
			c0,8.6,4.3,14.7,13.7,14.7c9.5,0,13.8-6.1,13.8-14.7V153.7z M328.5,215.9c-18.9,0-27.3-11.8-27.3-27.4v-33.9
			c0-15.5,8.4-27.2,27.3-27.2c19,0,27.3,11.8,27.3,27.2v33.9C355.7,204.1,347.5,215.9,328.5,215.9"/>
	</g>
	<rect id="Rectangle_17" x="374.4" y="129.4" class="st0" width="13.9" height="84.3"/>
	<path id="Path_61" class="st0" d="M482.7,213.8l-54.9-56.5l-5.3-6v62.5h-15.8v-84.4h15.2l53.2,56.4l5.5,6v-62.4h15.8v84.4
		L482.7,213.8z"/>
	<g id="Group_65">
		<path id="Path_62" class="st0" d="M548.7,213.8l-2-5.7c-2.3,4.8-7.2,7.2-12.9,7.2c-11.2,0-18.1-8-18.1-19.4v-48.6
			c0-10.5,7.9-19.4,20.3-19.4s19.4,8.6,19.4,19.4v11.3h-12.7v-12c0-3.5-2.2-6.5-6.7-6.5c-3.5-0.2-6.5,2.4-6.7,5.8c0,0.3,0,0.5,0,0.8
			v50.2c-0.2,3.5,2.5,6.5,6,6.7c0.3,0,0.5,0,0.8,0c4.6,0,6.8-3,6.8-6.7V181h-6.6v-9.4H556v42.2H548.7z"/>
	</g>
	<path id="Path_63" class="st0" d="M190.4,340.4v-66.1l-4.2,9l-29.9,57.1h-9.1l-29.5-57.1l-4.2-9v66.1H98.9v-84.3h21.2l28.4,56.7
		l3.9,8.6l3.9-8.6l28-56.7h21v84.3L190.4,340.4z"/>
	<path id="Path_64" class="st0" d="M246.6,274.3l-8,33.2h16.2L246.6,274.3z M263,340.4l-5.5-21.8h-21.7l-5.2,21.8h-13.2l22.3-84.3
		H254l22.6,84.3L263,340.4L263,340.4z"/>
	<polygon class="st0" points="371.3,256.1 363.7,256.1 271.7,256.1 271.7,268 308.6,268 308.6,340.4 324.4,340.4 324.4,268 
		363.7,268 371.3,268 388.3,268 388.3,340.4 402.4,340.4 402.4,268 427,268 427,256.1 	"/>
	<path id="Path_67" class="st0" d="M440.9,340.4v-84.3h33.7V268h-20.3v26.3h14.1v11.1h-14.1v22.7h20.3v12.3H440.9z"/>
	<g id="Group_66">
		<path id="Path_68" class="st0" d="M541.9,279c0-5.7-3.5-10.6-13.8-10.6h-23.7v26.1h23.7c9.3,0,13.8-4.7,13.8-11.7L541.9,279z
			 M552.7,340.9c-7.7,0-10.6-4.6-10.9-13.2l-0.3-11.1c-0.3-7.5-3.4-11.4-15-11.4h-22.2v35.2h-14.6v-84.3H527c21,0,29.8,9.2,29.8,22
			v2.8c0,9.2-4.1,16.3-17.1,18.7c12.9,1.1,16.7,8.6,16.7,17.2l0.1,9.9c0,4.2,1.1,6.7,4.7,8.9v5.3H552.7z"/>
	</g>
</g>
</svg>
