<svg xmlns="http://www.w3.org/2000/svg" width="272.9" height="55.7" viewBox="0 0 272.9 55.7">
  <g id="tag-line" transform="translate(-228.8 -421.9)">
    <path id="Path_181" data-name="Path 181" d="M229.7,421.9h8.1c5.3,0,8.8,3.8,8.8,9.6a8.482,8.482,0,0,1-9.1,9.4h-7.8Zm7.5,15.1c3.1,0,4.7-1.9,4.7-5.4s-1.7-5.7-4.6-5.7h-2.8V437Z" fill="#dfd9ce"/>
    <path id="Path_182" data-name="Path 182" d="M247.7,434.1a7.093,7.093,0,0,1,11.7-5.5,8.919,8.919,0,0,1,2.4,6.6H252c.3,1.8,1.3,3,3.1,3a2.344,2.344,0,0,0,2.3-1.4h4.2a5.542,5.542,0,0,1-2.3,3.2,7.07,7.07,0,0,1-4.3,1.2A6.773,6.773,0,0,1,247.7,434.1Zm9.7-1.5a2.735,2.735,0,0,0-2.6-2.7c-1.6,0-2.5,1-2.8,2.7Z" fill="#dfd9ce"/>
    <path id="Path_183" data-name="Path 183" d="M263.4,427.3h4.1v1.9h.1a4.625,4.625,0,0,1,4.1-2.3,3.975,3.975,0,0,1,3.8,2.4h.1a4.973,4.973,0,0,1,4.3-2.4c3.1,0,4.6,2.1,4.6,5.2V441h-4.3v-8.1c0-1.5-.6-2.3-1.9-2.3-1.4,0-2.2,1.1-2.2,2.8V441h-4.3v-8.1c0-1.5-.6-2.3-1.9-2.3-1.4,0-2.2,1.1-2.2,2.8V441h-4.3V427.3Z" fill="#dfd9ce"/>
    <path id="Path_184" data-name="Path 184" d="M286,434.1a7.3,7.3,0,1,1,7.3,7.2A6.957,6.957,0,0,1,286,434.1Zm10.2,0c0-2.5-1-4.1-2.9-4.1s-2.9,1.7-2.9,4.1c0,2.5,1,4.1,2.9,4.1C295.2,438.3,296.2,436.6,296.2,434.1Z" fill="#dfd9ce"/>
    <path id="Path_185" data-name="Path 185" d="M301.6,434.1a6.851,6.851,0,0,1,7.1-7.2c3.7,0,6.1,2.2,6.5,5.2H311a2.251,2.251,0,0,0-2.2-2c-1.9,0-2.8,1.5-2.8,4,0,2.4.9,4,2.8,4a2.282,2.282,0,0,0,2.4-2.3h4.1c-.1,3.1-2.6,5.6-6.5,5.6A7.011,7.011,0,0,1,301.6,434.1Z" fill="#dfd9ce"/>
    <path id="Path_186" data-name="Path 186" d="M316.8,427.3h4.1v2.1h.1a4.079,4.079,0,0,1,3.7-2.3,2.219,2.219,0,0,1,.9.1v3.7h-.1c-2.7-.4-4.4.9-4.4,3.9v6.1h-4.3V427.3Z" fill="#dfd9ce"/>
    <path id="Path_187" data-name="Path 187" d="M326.1,437.1c0-3,2.4-3.9,5.2-4.3,2.6-.3,3.5-.6,3.5-1.5s-.6-1.5-1.9-1.5c-1.4,0-2.1.6-2.2,1.8h-4c.1-2.5,2-4.7,6.2-4.7a7.488,7.488,0,0,1,4.4,1.1,4.508,4.508,0,0,1,1.7,3.9v6.9c0,1.1.1,1.7.5,1.9v.2h-4.2a6.4,6.4,0,0,1-.5-1.5h-.1a4.575,4.575,0,0,1-4,1.9C328.1,441.3,326.1,439.8,326.1,437.1Zm8.8-1.1v-1.6a11.394,11.394,0,0,1-2.2.7c-1.7.4-2.4.8-2.4,1.8,0,1.1.8,1.5,1.9,1.5A2.348,2.348,0,0,0,334.9,436Z" fill="#dfd9ce"/>
    <path id="Path_188" data-name="Path 188" d="M340.7,434.1a6.851,6.851,0,0,1,7.1-7.2c3.7,0,6.1,2.2,6.5,5.2h-4.2a2.251,2.251,0,0,0-2.2-2c-1.9,0-2.8,1.5-2.8,4,0,2.4.9,4,2.8,4a2.282,2.282,0,0,0,2.4-2.3h4.1c-.1,3.1-2.6,5.6-6.5,5.6A7.011,7.011,0,0,1,340.7,434.1Z" fill="#dfd9ce"/>
    <path id="Path_189" data-name="Path 189" d="M356.1,442h1.5c1.3,0,1.8-.5,1.8-1.4a10.3,10.3,0,0,0-.8-2.8l-4-10.5h4.6l1.8,5.8c.4,1.3.9,3.1.9,3.1h.1s.4-1.8.8-3.1l1.8-5.8h4.3l-4.7,13.8c-1.1,3.2-2.4,4.3-5.1,4.3h-2.8V442Z" fill="#dfd9ce"/>
    <path id="Path_190" data-name="Path 190" d="M368.3,443.8a2.758,2.758,0,0,0,2.1-2.9h-2.1v-4.5h4.5v4.1a5.164,5.164,0,0,1-1.2,3.6,4.824,4.824,0,0,1-3.2,1.5v-1.8Z" fill="#dfd9ce"/>
    <path id="Path_191" data-name="Path 191" d="M379.4,421.9h8.1c5.3,0,8.8,3.8,8.8,9.6a8.482,8.482,0,0,1-9.1,9.4h-7.8v-19Zm7.4,15.1c3.1,0,4.7-1.9,4.7-5.4s-1.7-5.7-4.6-5.7h-2.8V437Z" fill="#dfd9ce"/>
    <path id="Path_192" data-name="Path 192" d="M397.4,434.1a7.093,7.093,0,0,1,11.7-5.5,8.919,8.919,0,0,1,2.4,6.6h-9.8c.3,1.8,1.3,3,3.1,3a2.344,2.344,0,0,0,2.3-1.4h4.2A5.542,5.542,0,0,1,409,440a7.07,7.07,0,0,1-4.3,1.2A6.773,6.773,0,0,1,397.4,434.1Zm9.6-1.5a2.735,2.735,0,0,0-2.6-2.7c-1.6,0-2.5,1-2.8,2.7Z" fill="#dfd9ce"/>
    <path id="Path_193" data-name="Path 193" d="M412.2,436.5h4.1a2.2,2.2,0,0,0,2.5,2c1.3,0,2.1-.5,2.1-1.4,0-1.2-1.6-1.4-3.5-1.7-2.4-.4-4.9-1-4.9-4.2,0-2.9,2.7-4.4,5.9-4.4,3.9,0,5.9,1.7,6.1,4.4h-4c-.2-1.2-1-1.6-2.2-1.6-1.1,0-1.9.4-1.9,1.2,0,1,1.5,1.1,3.3,1.4,2.4.4,5.2,1,5.2,4.5,0,3-2.6,4.5-6.2,4.5C414.9,441.3,412.4,439.5,412.2,436.5Z" fill="#dfd9ce"/>
    <path id="Path_194" data-name="Path 194" d="M426.6,421.9h4.3v3.5h-4.3Zm0,5.4h4.3v13.6h-4.3Z" fill="#dfd9ce"/>
    <path id="Path_195" data-name="Path 195" d="M432.9,441.2h4.2c.2.7,1,1.3,2.4,1.3a2.324,2.324,0,0,0,2.6-2.6v-1.4H442a4.335,4.335,0,0,1-3.5,1.6c-3.1,0-5.9-2.3-5.9-6.5,0-4,2.3-6.8,5.7-6.8a4.228,4.228,0,0,1,3.8,1.9h.1v-1.5h4.1v12.3a5.85,5.85,0,0,1-1.8,4.5,7.29,7.29,0,0,1-5,1.5C435.8,445.6,433.3,444.1,432.9,441.2Zm9.3-7.7c0-1.8-1-3.4-2.8-3.4-1.6,0-2.7,1.3-2.7,3.4,0,2,1.1,3.4,2.7,3.4C441.4,437,442.2,435.5,442.2,433.5Z" fill="#dfd9ce"/>
    <path id="Path_196" data-name="Path 196" d="M448.5,427.3h4.2v1.9h.1a4.7,4.7,0,0,1,4.2-2.3c3,0,4.7,2.1,4.7,5.2V441h-4.3v-8c0-1.4-.7-2.4-2.1-2.4s-2.4,1.2-2.4,2.9V441h-4.3V427.3Z" fill="#dfd9ce"/>
    <path id="Path_197" data-name="Path 197" d="M463.7,443.8a2.758,2.758,0,0,0,2.1-2.9h-2.1v-4.5h4.5v4.1a5.164,5.164,0,0,1-1.2,3.6,4.824,4.824,0,0,1-3.2,1.5v-1.8Z" fill="#dfd9ce"/>
    <path id="Path_198" data-name="Path 198" d="M228.8,469.3c0-3,2.4-3.9,5.2-4.3,2.6-.3,3.5-.6,3.5-1.5s-.6-1.5-1.9-1.5c-1.4,0-2.1.6-2.2,1.8h-4c.1-2.5,2-4.7,6.2-4.7a7.488,7.488,0,0,1,4.4,1.1,4.508,4.508,0,0,1,1.7,3.9V471c0,1.1.1,1.7.5,1.9v.2H238a6.4,6.4,0,0,1-.5-1.5h-.1a4.575,4.575,0,0,1-4,1.9C230.7,473.5,228.8,472,228.8,469.3Zm8.8-1v-1.6a11.394,11.394,0,0,1-2.2.7c-1.7.4-2.4.8-2.4,1.8,0,1.1.8,1.5,1.9,1.5A2.453,2.453,0,0,0,237.6,468.3Z" fill="#dfd9ce"/>
    <path id="Path_199" data-name="Path 199" d="M244,459.5h4.2v1.9h.1a4.7,4.7,0,0,1,4.2-2.3c3,0,4.7,2.1,4.7,5.2v8.9h-4.3v-8c0-1.4-.7-2.4-2.1-2.4s-2.4,1.2-2.4,2.9v7.5H244Z" fill="#dfd9ce"/>
    <path id="Path_200" data-name="Path 200" d="M258.7,466.3c0-4.3,2.4-7.2,6-7.2a4.327,4.327,0,0,1,3.8,1.9h.1v-6.9h4.3v19h-4.1v-1.8h-.1a4.463,4.463,0,0,1-4,2.3C261.2,473.6,258.7,470.9,258.7,466.3Zm9.9,0c0-2.3-.9-3.9-2.8-3.9-1.7,0-2.7,1.6-2.7,3.9,0,2.4,1,3.9,2.7,3.9C267.6,470.1,268.6,468.6,268.6,466.3Z" fill="#dfd9ce"/>
    <path id="Path_201" data-name="Path 201" d="M280.4,469.6v-7.3h-1.8v-2.7h1.8v-4.3h4.2v4.3h2.5v2.7h-2.5v6.4c0,1.1.6,1.3,1.5,1.3h1v3.2a10.972,10.972,0,0,1-2.4.2C282.2,473.3,280.4,472.5,280.4,469.6Z" fill="#dfd9ce"/>
    <path id="Path_202" data-name="Path 202" d="M288.9,454.1h4.3v7.1h.1a4.752,4.752,0,0,1,4-2.1c3,0,4.7,2.1,4.7,5.2v8.9h-4.3v-8c0-1.4-.7-2.4-2.1-2.4s-2.4,1.2-2.4,2.9v7.5h-4.3V454.1Z" fill="#dfd9ce"/>
    <path id="Path_203" data-name="Path 203" d="M303.6,466.3a7.093,7.093,0,0,1,11.7-5.5,8.919,8.919,0,0,1,2.4,6.6h-9.8c.3,1.8,1.3,3,3.1,3a2.344,2.344,0,0,0,2.3-1.4h4.2a5.542,5.542,0,0,1-2.3,3.2,7.07,7.07,0,0,1-4.3,1.2A6.722,6.722,0,0,1,303.6,466.3Zm9.6-1.4a2.735,2.735,0,0,0-2.6-2.7c-1.6,0-2.5,1-2.8,2.7Z" fill="#dfd9ce"/>
    <path id="Path_204" data-name="Path 204" d="M323.8,454.1h6.3l2.3,8.3c.3,1.2,1.1,4.3,1.1,4.3h.1s.7-3.1,1.1-4.3l2.3-8.3h6.4v19H339v-9.6c0-.8.1-3.8.1-3.8H339s-.7,2.8-.9,3.5l-2.7,9.8h-3.9l-2.7-9.8c-.2-.7-.9-3.6-.9-3.6h-.1s.1,3.1.1,3.8v9.5h-4.2V454.1Z" fill="#dfd9ce"/>
    <path id="Path_205" data-name="Path 205" d="M345.7,468.5v-8.9H350v8c0,1.5.7,2.3,2,2.3a2.4,2.4,0,0,0,2.4-2.7v-7.6h4.3v13.6h-4.1v-1.7h-.1a4.8,4.8,0,0,1-4.1,2.1C347.4,473.5,345.7,471.5,345.7,468.5Z" fill="#dfd9ce"/>
    <path id="Path_206" data-name="Path 206" d="M360.4,466.3a7.093,7.093,0,0,1,11.7-5.5,8.919,8.919,0,0,1,2.4,6.6h-9.8c.3,1.8,1.3,3,3.1,3a2.344,2.344,0,0,0,2.3-1.4h4.2a5.542,5.542,0,0,1-2.3,3.2,7.07,7.07,0,0,1-4.3,1.2A6.773,6.773,0,0,1,360.4,466.3Zm9.7-1.4a2.735,2.735,0,0,0-2.6-2.7c-1.6,0-2.5,1-2.8,2.7Z" fill="#dfd9ce"/>
    <path id="Path_207" data-name="Path 207" d="M376.1,454.1h4.4v19h-4.4Z" fill="#dfd9ce"/>
    <path id="Path_208" data-name="Path 208" d="M382.8,454.1h4.4v19h-4.4Z" fill="#dfd9ce"/>
    <path id="Path_209" data-name="Path 209" d="M388.8,466.3a7.093,7.093,0,0,1,11.7-5.5,8.919,8.919,0,0,1,2.4,6.6h-9.8c.3,1.8,1.3,3,3.1,3a2.344,2.344,0,0,0,2.3-1.4h4.2a5.542,5.542,0,0,1-2.3,3.2,7.07,7.07,0,0,1-4.3,1.2A6.773,6.773,0,0,1,388.8,466.3Zm9.7-1.4a2.735,2.735,0,0,0-2.6-2.7c-1.6,0-2.5,1-2.8,2.7Z" fill="#dfd9ce"/>
    <path id="Path_210" data-name="Path 210" d="M404.5,459.5h4.1v2.1h.1a4.079,4.079,0,0,1,3.7-2.3,2.219,2.219,0,0,1,.9.1v3.7h-.1c-2.7-.4-4.4.9-4.4,3.9v6.1h-4.3V459.5Z" fill="#dfd9ce"/>
    <path id="Path_211" data-name="Path 211" d="M419.4,454.1h9.1c3.8,0,6.6,1.9,6.6,5.5a4.59,4.59,0,0,1-3.3,4.6v.1a4,4,0,0,1,2.8,3.5c.4,2.5.1,4.9.8,5.1v.2h-4.6c-.5-.3-.4-2.5-.7-4.4-.2-1.8-1.1-2.7-3.2-2.7h-2.8v7.1h-4.7v-19Zm8.2,8.4c1.9,0,2.8-.9,2.8-2.3s-.9-2.4-2.7-2.4h-3.6v4.7h3.5Z" fill="#dfd9ce"/>
    <path id="Path_212" data-name="Path 212" d="M436.3,466.3a7.093,7.093,0,0,1,11.7-5.5,8.919,8.919,0,0,1,2.4,6.6h-9.8c.3,1.8,1.3,3,3.1,3A2.344,2.344,0,0,0,446,469h4.2a5.542,5.542,0,0,1-2.3,3.2,7.07,7.07,0,0,1-4.3,1.2A6.773,6.773,0,0,1,436.3,466.3Zm9.7-1.4a2.735,2.735,0,0,0-2.6-2.7c-1.6,0-2.5,1-2.8,2.7Z" fill="#dfd9ce"/>
    <path id="Path_213" data-name="Path 213" d="M452,459.5h4.1v1.6h.1a4.976,4.976,0,0,1,4.1-2c3.6,0,5.8,3.1,5.8,7.2,0,4.4-2.4,7.2-5.9,7.2a4.712,4.712,0,0,1-3.9-1.8h-.1v5.9H452Zm9.8,7c0-2.3-.9-3.9-2.7-3.9-1.9,0-2.8,1.7-2.8,3.9s1.1,3.7,2.9,3.7C460.8,470.2,461.8,468.8,461.8,466.5Z" fill="#dfd9ce"/>
    <path id="Path_214" data-name="Path 214" d="M467.2,466.4a7.3,7.3,0,1,1,7.3,7.2A6.957,6.957,0,0,1,467.2,466.4Zm10.1,0c0-2.5-1-4.1-2.9-4.1s-2.9,1.7-2.9,4.1c0,2.5,1,4.1,2.9,4.1S477.3,468.8,477.3,466.4Z" fill="#dfd9ce"/>
    <path id="Path_215" data-name="Path 215" d="M483.3,459.5h4.1v2.1h.1a4.079,4.079,0,0,1,3.7-2.3,2.219,2.219,0,0,1,.9.1v3.7H492c-2.7-.4-4.4.9-4.4,3.9v6.1h-4.3V459.5Z" fill="#dfd9ce"/>
    <path id="Path_216" data-name="Path 216" d="M495,469.6v-7.3h-1.8v-2.7H495v-4.3h4.2v4.3h2.5v2.7h-2.5v6.4c0,1.1.6,1.3,1.5,1.3h1v3.2a10.972,10.972,0,0,1-2.4.2C496.8,473.3,495,472.5,495,469.6Z" fill="#dfd9ce"/>
  </g>
</svg>
