<svg xmlns="http://www.w3.org/2000/svg" width="641" height="461.9" viewBox="0 0 641 461.9">
  <g id="white-xs_2_" transform="translate(-1218.4)">
    <g id="Group_28" data-name="Group 28">
      <path id="Path_22" data-name="Path 22" d="M1537.1,326.9l-23.2-33.5h3.5l21.6,31.3h.1l21.6-31.3h3.5L1540.8,327l24.4,35.2h-3.5l-22.9-32.9h-.1l-23,32.9h-3.5Z" fill="#dfd9ce"/>
    </g>
    <g id="Group_29" data-name="Group 29">
      <path id="Path_23" data-name="Path 23" d="M1440.2,326.9,1417,293.4h3.5l21.6,31.3h.1l21.6-31.3h3.5L1443.9,327l24.4,35.2h-3.5l-22.9-32.9h-.1l-23,32.9h-3.5Z" fill="#dfd9ce"/>
    </g>
    <g id="Group_30" data-name="Group 30">
      <path id="Path_24" data-name="Path 24" d="M1341.7,326.9l-23.2-33.5h3.5l21.6,31.3h.1l21.6-31.3h3.5L1345.4,327l24.4,35.2h-3.5l-22.9-32.9h-.1l-23,32.9h-3.5Z" fill="#dfd9ce"/>
    </g>
    <g id="Group_31" data-name="Group 31">
      <path id="Path_25" data-name="Path 25" d="M1243.3,326.9l-23.2-33.5h3.5l21.6,31.3h.1l21.6-31.3h3.5L1247,327l24.4,35.2h-3.5L1245,329.3h-.1l-23,32.9h-3.5Z" fill="#dfd9ce"/>
    </g>
    <g id="Group_32" data-name="Group 32">
      <path id="Path_26" data-name="Path 26" d="M1537.1,228.2l-23.2-33.5h3.5L1539,226h.1l21.6-31.3h3.5l-23.4,33.6,24.4,35.2h-3.5l-22.9-32.9h-.1l-23,32.9h-3.5Z" fill="#dfd9ce"/>
    </g>
    <g id="Group_33" data-name="Group 33">
      <path id="Path_27" data-name="Path 27" d="M1440.2,228.2,1417,194.7h3.5l21.6,31.3h.1l21.6-31.3h3.5l-23.4,33.6,24.4,35.2h-3.5l-22.9-32.9h-.1l-23,32.9h-3.5Z" fill="#dfd9ce"/>
    </g>
    <g id="Group_34" data-name="Group 34">
      <path id="Path_28" data-name="Path 28" d="M1341.7,228.2l-23.2-33.5h3.5l21.6,31.3h.1l21.6-31.3h3.5l-23.4,33.6,24.4,35.2h-3.5l-22.9-32.9h-.1l-23,32.9h-3.5Z" fill="#dfd9ce"/>
    </g>
    <g id="Group_35" data-name="Group 35">
      <path id="Path_29" data-name="Path 29" d="M1243.3,228.2l-23.2-33.5h3.5l21.6,31.3h.1l21.6-31.3h3.5L1247,228.3l24.4,35.2h-3.5L1245,230.6h-.1l-23,32.9h-3.5Z" fill="#dfd9ce"/>
    </g>
    <g id="Group_36" data-name="Group 36">
      <path id="Path_30" data-name="Path 30" d="M1537.1,129.6l-23.2-33.5h3.5l21.6,31.3h.1l21.6-31.3h3.5l-23.4,33.6,24.4,35.2h-3.5L1538.8,132h-.1l-23,32.9h-3.5Z" fill="#dfd9ce"/>
    </g>
    <g id="Group_37" data-name="Group 37">
      <path id="Path_31" data-name="Path 31" d="M1440.2,129.6,1417,96.1h3.5l21.6,31.3h.1l21.6-31.3h3.5l-23.4,33.6,24.4,35.2h-3.5L1442,132h-.1l-23,32.9h-3.5Z" fill="#dfd9ce"/>
    </g>
    <g id="Group_38" data-name="Group 38">
      <path id="Path_32" data-name="Path 32" d="M1341.7,129.6l-23.2-33.5h3.5l21.6,31.3h.1l21.6-31.3h3.5l-23.4,33.6,24.4,35.2h-3.5L1343.4,132h-.1l-23,32.9h-3.5Z" fill="#dfd9ce"/>
    </g>
    <g id="Group_39" data-name="Group 39">
      <path id="Path_33" data-name="Path 33" d="M1243.3,129.6l-23.2-33.5h3.5l21.6,31.3h.1l21.6-31.3h3.5L1247,129.7l24.4,35.2h-3.5L1245,132h-.1l-23,32.9h-3.5Z" fill="#dfd9ce"/>
    </g>
    <g id="Group_40" data-name="Group 40">
      <path id="Path_34" data-name="Path 34" d="M1831.2,326.9,1808,293.4h3.5l21.6,31.3h.1l21.6-31.3h3.5L1835,327l24.4,35.2h-3.5L1833,329.3h-.1l-23,32.9h-3.5Z" fill="#dfd9ce"/>
    </g>
    <g id="Group_41" data-name="Group 41">
      <path id="Path_35" data-name="Path 35" d="M1732.8,326.9l-23.2-33.5h3.5l21.6,31.3h.1l21.6-31.3h3.5L1736.5,327l24.4,35.2h-3.5l-22.9-32.9h-.1l-23,32.9h-3.5Z" fill="#dfd9ce"/>
    </g>
    <g id="Group_42" data-name="Group 42">
      <path id="Path_36" data-name="Path 36" d="M1634.4,326.9l-23.2-33.5h3.5l21.6,31.3h.1l21.6-31.3h3.5L1638.1,327l24.4,35.2H1659l-22.9-32.9h-.1l-23,32.9h-3.5Z" fill="#dfd9ce"/>
    </g>
    <g id="Group_43" data-name="Group 43">
      <path id="Path_37" data-name="Path 37" d="M1537.1,426.6l-23.2-33.5h3.5l21.6,31.3h.1l21.6-31.3h3.5l-23.4,33.6,24.4,35.2h-3.5L1538.8,429h-.1l-23,32.9h-3.5Z" fill="#dfd9ce"/>
    </g>
    <g id="Group_44" data-name="Group 44">
      <path id="Path_38" data-name="Path 38" d="M1440.2,426.6,1417,393.1h3.5l21.6,31.3h.1l21.6-31.3h3.5l-23.4,33.6,24.4,35.2h-3.5L1442,429h-.1l-23,32.9h-3.5Z" fill="#dfd9ce"/>
    </g>
    <g id="Group_45" data-name="Group 45">
      <path id="Path_39" data-name="Path 39" d="M1341.7,426.6l-23.2-33.5h3.5l21.6,31.3h.1l21.6-31.3h3.5l-23.4,33.6,24.4,35.2h-3.5L1343.4,429h-.1l-23,32.9h-3.5Z" fill="#dfd9ce"/>
    </g>
    <g id="Group_46" data-name="Group 46">
      <path id="Path_40" data-name="Path 40" d="M1243.3,426.6l-23.2-33.5h3.5l21.6,31.3h.1l21.6-31.3h3.5L1247,426.7l24.4,35.2h-3.5L1245,429h-.1l-23,32.9h-3.5Z" fill="#dfd9ce"/>
    </g>
    <g id="Group_47" data-name="Group 47">
      <path id="Path_41" data-name="Path 41" d="M1831.2,426.6,1808,393.1h3.5l21.6,31.3h.1l21.6-31.3h3.5l-23.4,33.6,24.4,35.2h-3.5L1832.9,429h-.1l-23,32.9h-3.5Z" fill="#dfd9ce"/>
    </g>
    <g id="Group_48" data-name="Group 48">
      <path id="Path_42" data-name="Path 42" d="M1732.8,426.6l-23.2-33.5h3.5l21.6,31.3h.1l21.6-31.3h3.5l-23.4,33.6,24.4,35.2h-3.5L1734.5,429h-.1l-23,32.9h-3.5Z" fill="#dfd9ce"/>
    </g>
    <g id="Group_49" data-name="Group 49">
      <path id="Path_43" data-name="Path 43" d="M1634.4,426.6l-23.2-33.5h3.5l21.6,31.3h.1l21.6-31.3h3.5l-23.4,33.6,24.4,35.2H1659L1636.1,429h-.1l-23,32.9h-3.5Z" fill="#dfd9ce"/>
    </g>
    <g id="Group_50" data-name="Group 50">
      <path id="Path_44" data-name="Path 44" d="M1831.2,228.2,1808,194.7h3.5l21.6,31.3h.1l21.6-31.3h3.5l-23.4,33.6,24.4,35.2h-3.5l-22.9-32.9h-.1l-23,32.9h-3.5Z" fill="#dfd9ce"/>
    </g>
    <g id="Group_51" data-name="Group 51">
      <path id="Path_45" data-name="Path 45" d="M1732.8,228.2l-23.2-33.5h3.5l21.6,31.3h.1l21.6-31.3h3.5l-23.4,33.6,24.4,35.2h-3.5l-22.9-32.9h-.1l-23,32.9h-3.5Z" fill="#dfd9ce"/>
    </g>
    <g id="Group_52" data-name="Group 52">
      <path id="Path_46" data-name="Path 46" d="M1634.4,228.2l-23.2-33.5h3.5l21.6,31.3h.1l21.6-31.3h3.5l-23.4,33.6,24.4,35.2H1659l-22.9-32.9h-.1l-23,32.9h-3.5Z" fill="#dfd9ce"/>
    </g>
    <g id="Group_53" data-name="Group 53">
      <path id="Path_47" data-name="Path 47" d="M1831.2,129.6,1808,96.1h3.5l21.6,31.3h.1l21.6-31.3h3.5l-23.4,33.6,24.4,35.2h-3.5L1832.9,132h-.1l-23,32.9h-3.5Z" fill="#dfd9ce"/>
    </g>
    <g id="Group_54" data-name="Group 54">
      <path id="Path_48" data-name="Path 48" d="M1732.8,129.6l-23.2-33.5h3.5l21.6,31.3h.1l21.6-31.3h3.5l-23.4,33.6,24.4,35.2h-3.5L1734.5,132h-.1l-23,32.9h-3.5Z" fill="#dfd9ce"/>
    </g>
    <g id="Group_55" data-name="Group 55">
      <path id="Path_49" data-name="Path 49" d="M1634.4,129.6l-23.2-33.5h3.5l21.6,31.3h.1L1658,96.1h3.5l-23.4,33.6,24.4,35.2H1659L1636.1,132h-.1l-23,32.9h-3.5Z" fill="#dfd9ce"/>
    </g>
    <g id="Group_56" data-name="Group 56">
      <path id="Path_50" data-name="Path 50" d="M1537.1,33.5,1513.9,0h3.5L1539,31.3h.1L1560.7,0h3.5l-23.4,33.6,24.4,35.2h-3.5l-22.9-32.9h-.1l-23,32.9h-3.5Z" fill="#dfd9ce"/>
    </g>
    <g id="Group_57" data-name="Group 57">
      <path id="Path_51" data-name="Path 51" d="M1440.2,33.5,1417,0h3.5l21.6,31.3h.1L1463.8,0h3.5l-23.4,33.6,24.4,35.2h-3.5L1442,35.9h-.1l-23,32.9h-3.5Z" fill="#dfd9ce"/>
    </g>
    <g id="Group_58" data-name="Group 58">
      <path id="Path_52" data-name="Path 52" d="M1341.7,33.5,1318.5,0h3.5l21.6,31.3h.1L1365.4,0h3.5l-23.4,33.6,24.4,35.2h-3.5l-22.9-32.9h-.1l-23,32.9h-3.5Z" fill="#dfd9ce"/>
    </g>
    <g id="Group_59" data-name="Group 59">
      <path id="Path_53" data-name="Path 53" d="M1243.3,33.5,1220.1,0h3.5l21.6,31.3h.1L1267,0h3.5L1247,33.6l24.4,35.2h-3.5L1245,35.9h-.1l-23,32.9h-3.5Z" fill="#dfd9ce"/>
    </g>
    <g id="Group_60" data-name="Group 60">
      <path id="Path_54" data-name="Path 54" d="M1831.2,33.5,1808.1,0h3.5l21.6,31.3h.1L1854.9,0h3.5L1835,33.6l24.4,35.2h-3.5L1833,35.9h-.1l-23,32.9h-3.5Z" fill="#dfd9ce"/>
    </g>
    <g id="Group_61" data-name="Group 61">
      <path id="Path_55" data-name="Path 55" d="M1732.8,33.5,1709.6,0h3.5l21.6,31.3h.1L1756.5,0h3.5l-23.4,33.6L1761,68.8h-3.5l-22.9-32.9h-.1l-23,32.9H1708Z" fill="#dfd9ce"/>
    </g>
    <g id="Group_62" data-name="Group 62">
      <path id="Path_56" data-name="Path 56" d="M1634.4,33.5,1611.2,0h3.5l21.6,31.3h.1L1658,0h3.5l-23.4,33.6,24.4,35.2H1659l-22.9-32.9h-.1l-23,32.9h-3.5Z" fill="#dfd9ce"/>
    </g>
  </g>
</svg>
