<svg xmlns="http://www.w3.org/2000/svg" width="1451.5" height="868.7" viewBox="0 0 1451.5 868.7">
  <g id="gold-xs_2_" transform="translate(6 -203.2)">
    <g id="Group_20" data-name="Group 20">
      <path id="Path_14" data-name="Path 14" d="M1246,1048.9l-14.5-22h6.5l11.1,18h.1l11.4-18h6.2l-14.7,22,15.2,23h-6.8L1249,1053h-.1l-12.1,18.9h-6.4Z" fill="#f59402"/>
    </g>
    <g id="Group_21" data-name="Group 21">
      <path id="Path_15" data-name="Path 15" d="M1417.3,630.9l-13.6-21.4h12.7l7.6,13.1h.1l7.7-13.1h12.1l-13.3,21.3,14.9,23.7h-13.1l-8.4-15.2h-.1l-8.7,15.2h-12.6Z" fill="#f59402"/>
    </g>
    <g id="Group_22" data-name="Group 22" transform="translate(-6)">
      <path id="Path_16" data-name="Path 16" d="M15.6,799.5l-14.5-22H7.6l11.1,18h.1l11.4-18h6.2l-14.7,22,15.2,23H30.1L18.5,803.6h-.1l-12,18.9H0Z" fill="#f59402"/>
    </g>
    <g id="Group_23" data-name="Group 23">
      <path id="Path_17" data-name="Path 17" d="M454,496.6l-29.4-45.1h32.1l14.8,25.4h.3l15-25.4H517l-28.6,44.8,31.7,50.3H487l-16.4-29.7h-.3L453,546.6H421.7Z" fill="#f59402"/>
    </g>
    <g id="Group_24" data-name="Group 24">
      <path id="Path_18" data-name="Path 18" d="M942.6,224.5l-13.9-21.3h15.2l7,12h.1l7.1-12h14.3l-13.5,21.2,15,23.8H958.2l-7.7-14h-.1l-8.2,14H927.4Z" fill="#f59402"/>
    </g>
    <g id="Group_25" data-name="Group 25">
      <path id="Path_19" data-name="Path 19" d="M929.9,778.2,902.4,736h30l13.8,23.8h.2L960.5,736h28.2L962,778l29.6,47h-31l-15.3-27.7h-.2L928.9,825H899.7Z" fill="#f59402"/>
    </g>
    <g id="Group_26" data-name="Group 26">
      <path id="Path_20" data-name="Path 20" d="M1049.6,531.9,1021.3,491h4.2l26.5,38.2h.1l26.5-38.2h4.2l-28.6,41,29.9,43h-4.2l-28-40.2h-.1L1023.7,575h-4.2Z" fill="#f59402"/>
    </g>
    <g id="Group_27" data-name="Group 27">
      <path id="Path_21" data-name="Path 21" d="M728.8,950.6,702,911.8h4L731,948h.1l25-36.2h4l-27,38.8,28.3,40.7h-4L731,953.4h-.1l-26.6,38.1h-4Z" fill="#f59402"/>
    </g>
  </g>
</svg>
