<svg xmlns="http://www.w3.org/2000/svg" width="433.7" height="23.2" viewBox="0 0 433.7 23.2">
  <g id="date" transform="translate(-98.4 -477.7)">
    <g id="Group_67" data-name="Group 67">
      <path id="Path_69" data-name="Path 69" d="M105.6,498.5h4.7v2H98.4v-2h5V482a22.037,22.037,0,0,1-3.6.4l-1-.1-.4-1.9a17.253,17.253,0,0,0,3.3,0,3.336,3.336,0,0,0,1.9-.8c.3-.3.5-.5.9-.5,1.1,0,1.1,1.1,1.1,1.8v17.6Z" fill="#dfd9ce"/>
      <path id="Path_70" data-name="Path 70" d="M132.2,496.6l-1.8,3.8h-12v-1.9l6.7-7.1c1.6-1.7,3.5-4.4,3.5-6.9a3.693,3.693,0,0,0-3.8-3.6,3.979,3.979,0,0,0-3.2,1.4c0,1.4-.6,2.8-1.8,2.8-.7,0-.9-.6-.9-1.2,0-3,3.3-4.9,6-4.9a5.727,5.727,0,0,1,6,5.5,10.744,10.744,0,0,1-3.3,7.1l-5.7,6.2-.7.7H129l1.2-2.3Z" fill="#dfd9ce"/>
      <path id="Path_71" data-name="Path 71" d="M146.3,496a2.523,2.523,0,0,1,2.5,2.4,2.393,2.393,0,0,1-2.5,2.4,2.523,2.523,0,0,1-2.5-2.4A2.456,2.456,0,0,1,146.3,496Z" fill="#dfd9ce"/>
      <path id="Path_72" data-name="Path 72" d="M174.6,489.9c0,8-3.6,10.9-7.3,10.9-3.6,0-7.3-2.9-7.3-10.9s3.6-11,7.3-11S174.6,481.9,174.6,489.9Zm-7.3-9c-4.4,0-5,5.8-5,9s.6,9,5,9,5-5.8,5-9S171.7,480.9,167.3,480.9Z" fill="#dfd9ce"/>
      <path id="Path_73" data-name="Path 73" d="M191.3,488.9c2.1,1.6,3.2,2.6,3.2,5.4,0,4.1-3.3,6.5-7.2,6.5a12.75,12.75,0,0,1-6.6-1.7l.9-1.8a11.2,11.2,0,0,0,5.6,1.5c2.8,0,5.1-1.4,5.1-4.5a4.152,4.152,0,0,0-4.5-4.5l-1.8.2v-2a5.283,5.283,0,0,0,1.3.1c2.1,0,4-.8,4-3.2,0-2.3-1.3-4-3.7-4a3.85,3.85,0,0,0-2.4.8c-.1,1.1-.8,2.5-2.1,2.5-.7,0-1-.5-1-1.2a3.842,3.842,0,0,1,1.7-2.8,6.773,6.773,0,0,1,4.1-1.4,5.635,5.635,0,0,1,5.7,5.7c-.2,2.2-.9,3-2.3,4.4Z" fill="#dfd9ce"/>
      <path id="Path_74" data-name="Path 74" d="M209.4,496a2.523,2.523,0,0,1,2.5,2.4,2.393,2.393,0,0,1-2.5,2.4,2.523,2.523,0,0,1-2.5-2.4A2.6,2.6,0,0,1,209.4,496Z" fill="#dfd9ce"/>
      <path id="Path_75" data-name="Path 75" d="M237.5,496.6l-1.8,3.8h-12v-1.9l6.7-7.1c1.6-1.7,3.5-4.4,3.5-6.9a3.693,3.693,0,0,0-3.8-3.6,3.979,3.979,0,0,0-3.2,1.4c0,1.4-.6,2.8-1.8,2.8-.7,0-.9-.6-.9-1.2,0-3,3.3-4.9,6-4.9a5.727,5.727,0,0,1,6,5.5,10.744,10.744,0,0,1-3.3,7.1l-5.7,6.2-.7.7h7.8l1.2-2.3Z" fill="#dfd9ce"/>
      <path id="Path_76" data-name="Path 76" d="M258.8,489.9c0,8-3.6,10.9-7.3,10.9-3.6,0-7.3-2.9-7.3-10.9s3.6-11,7.3-11S258.8,481.9,258.8,489.9Zm-7.3-9c-4.4,0-5,5.8-5,9s.6,9,5,9,5-5.8,5-9S255.9,480.9,251.5,480.9Z" fill="#dfd9ce"/>
      <path id="Path_77" data-name="Path 77" d="M274,498.5h4.7v2H266.8v-2h5V482a22.037,22.037,0,0,1-3.6.4l-1-.1-.4-1.9a17.253,17.253,0,0,0,3.3,0,3.336,3.336,0,0,0,1.9-.8c.3-.3.5-.5.9-.5,1.1,0,1.1,1.1,1.1,1.8Z" fill="#dfd9ce"/>
      <path id="Path_78" data-name="Path 78" d="M288.3,498.8l1.8.2c4.6.5,7.4-3.7,8.1-7.9h0a6.934,6.934,0,0,1-4.7,2,6.576,6.576,0,0,1-6.6-6.8c0-3.9,2.7-7.3,6.7-7.3,2.8,0,6.9,2,6.9,9,0,6.5-3.2,12.9-10.5,12.9-.6,0-1.2-.1-1.7-.1v-2Zm5.3-17.9c-2.7,0-4.6,2.5-4.6,5.1s1.5,5.1,4.6,5.1c3,0,4.6-2.6,4.6-5.1A4.832,4.832,0,0,0,293.6,480.9Z" fill="#dfd9ce"/>
      <path id="Path_79" data-name="Path 79" d="M309.4,490.9v-2H320v2Z" fill="#dfd9ce"/>
      <path id="Path_80" data-name="Path 80" d="M337.2,498.5h4.7v2H330v-2h5V482a22.037,22.037,0,0,1-3.6.4l-1-.1-.4-1.9a17.253,17.253,0,0,0,3.3,0,3.336,3.336,0,0,0,1.9-.8c.3-.3.5-.5.9-.5,1.1,0,1.1,1.1,1.1,1.8v17.6Z" fill="#dfd9ce"/>
      <path id="Path_81" data-name="Path 81" d="M363.8,496.6l-1.8,3.8H350v-1.9l6.7-7.1c1.6-1.7,3.5-4.4,3.5-6.9a3.693,3.693,0,0,0-3.8-3.6,3.979,3.979,0,0,0-3.2,1.4c0,1.4-.6,2.8-1.8,2.8-.7,0-.9-.6-.9-1.2,0-3,3.3-4.9,6-4.9a5.727,5.727,0,0,1,6,5.5,10.744,10.744,0,0,1-3.3,7.1l-5.7,6.2-.7.7h7.8l1.2-2.3Z" fill="#dfd9ce"/>
      <path id="Path_82" data-name="Path 82" d="M377.9,496a2.523,2.523,0,0,1,2.5,2.4,2.393,2.393,0,0,1-2.5,2.4,2.523,2.523,0,0,1-2.5-2.4A2.456,2.456,0,0,1,377.9,496Z" fill="#dfd9ce"/>
      <path id="Path_83" data-name="Path 83" d="M400.3,498.5H405v2H393.1v-2h5V482a22.037,22.037,0,0,1-3.6.4l-1-.1-.4-1.9a17.253,17.253,0,0,0,3.3,0,3.336,3.336,0,0,0,1.9-.8c.3-.3.5-.5.9-.5,1.1,0,1.1,1.1,1.1,1.8Z" fill="#dfd9ce"/>
      <path id="Path_84" data-name="Path 84" d="M424.8,485.6v7.3h3v2h-3v3.5h3v2h-8.7v-2h3.5v-3.5H412.3V493c2.9-4.8,5.6-9.8,7-15.3l2.2.6c-1.4,5.3-4.1,10-6.9,14.6h8.1v-7.3h2.1Z" fill="#dfd9ce"/>
      <path id="Path_85" data-name="Path 85" d="M441,496a2.523,2.523,0,0,1,2.5,2.4,2.393,2.393,0,0,1-2.5,2.4,2.523,2.523,0,0,1-2.5-2.4A2.6,2.6,0,0,1,441,496Z" fill="#dfd9ce"/>
      <path id="Path_86" data-name="Path 86" d="M469.1,496.6l-1.8,3.8h-12v-1.9l6.7-7.1c1.6-1.7,3.5-4.4,3.5-6.9a3.693,3.693,0,0,0-3.8-3.6,3.979,3.979,0,0,0-3.2,1.4c0,1.4-.6,2.8-1.8,2.8-.7,0-.9-.6-.9-1.2,0-3,3.3-4.9,6-4.9a5.727,5.727,0,0,1,6,5.5,10.744,10.744,0,0,1-3.3,7.1l-5.7,6.2-.7.7h7.8l1.2-2.3Z" fill="#dfd9ce"/>
      <path id="Path_87" data-name="Path 87" d="M490.4,489.9c0,8-3.6,10.9-7.3,10.9-3.6,0-7.3-2.9-7.3-10.9s3.6-11,7.3-11S490.4,481.9,490.4,489.9Zm-7.3-9c-4.4,0-5,5.8-5,9s.6,9,5,9,5-5.8,5-9S487.5,480.9,483.1,480.9Z" fill="#dfd9ce"/>
      <path id="Path_88" data-name="Path 88" d="M505.6,498.5h4.7v2H498.4v-2h5V482a22.037,22.037,0,0,1-3.6.4l-1-.1-.4-1.9a17.253,17.253,0,0,0,3.3,0,3.336,3.336,0,0,0,1.9-.8c.3-.3.5-.5.9-.5,1.1,0,1.1,1.1,1.1,1.8Z" fill="#dfd9ce"/>
      <path id="Path_89" data-name="Path 89" d="M519.9,498.8l1.8.2c4.6.5,7.4-3.7,8.1-7.9h0a6.934,6.934,0,0,1-4.7,2,6.576,6.576,0,0,1-6.6-6.8c0-3.9,2.7-7.3,6.7-7.3,2.8,0,6.9,2,6.9,9,0,6.5-3.2,12.9-10.5,12.9-.6,0-1.2-.1-1.7-.1Zm5.3-17.9c-2.7,0-4.6,2.5-4.6,5.1s1.5,5.1,4.6,5.1c3,0,4.6-2.6,4.6-5.1A4.832,4.832,0,0,0,525.2,480.9Z" fill="#dfd9ce"/>
    </g>
  </g>
</svg>
