<svg xmlns="http://www.w3.org/2000/svg" width="462.3" height="214" viewBox="0 0 462.3 214">
  <g id="ongoing-matter-logo-white_2_" transform="translate(-98.9 -126.9)">
    <g id="Group_63" data-name="Group 63">
      <path id="Path_57" data-name="Path 57" d="M125.7,146.9c0-4.1-2.4-6.8-6.6-6.8s-6.6,2.8-6.6,6.8v49.4c0,4.1,2.4,6.8,6.6,6.8s6.6-2.8,6.6-6.8Zm-6.6,68.4c-12.2,0-20.2-8.2-20.2-20V147.9c0-11.7,8-20,20.2-20s20.2,8.4,20.2,20v47.4c0,11.7-8,20-20.2,20" fill="#dfd9ce"/>
    </g>
    <path id="Path_58" data-name="Path 58" d="M189.1,213.8l-14.2-38.3-4.7-12.9v51.2H158V129.4h11.9L183.1,168l4.3,13.1V129.4h12.1v84.4Z" fill="#dfd9ce"/>
    <g id="Group_64" data-name="Group 64">
      <path id="Path_59" data-name="Path 59" d="M251.7,139.3c-13.1,0-19.4,8.6-19.4,18.5v27.7c0,9.9,6.6,18.4,19.1,18.4,11.2,0,17.4-7.6,17.4-16.2v-6.5H252.2V169.5h30.3v44.2h-7.7l-2.3-8.5c-4.6,6.8-12.5,10.9-22.8,10.9-21,0-31.4-14.4-31.4-31.4v-26c0-17.1,11.4-31.8,33.5-31.8,18.6,0,30.8,11.7,30.8,25.8V156H268.8v-2c-.2-9.3-6.9-14.7-17.1-14.7" fill="#dfd9ce"/>
      <path id="Path_60" data-name="Path 60" d="M342.3,153.7c0-8.6-4.3-14.7-13.8-14.7-9.4,0-13.7,6.1-13.7,14.7v35.7c0,8.6,4.3,14.7,13.7,14.7,9.5,0,13.8-6.1,13.8-14.7Zm-13.8,62.2c-18.9,0-27.3-11.8-27.3-27.4V154.6c0-15.5,8.4-27.2,27.3-27.2,19,0,27.3,11.8,27.3,27.2v33.9c-.1,15.6-8.3,27.4-27.3,27.4" fill="#dfd9ce"/>
    </g>
    <rect id="Rectangle_17" data-name="Rectangle 17" width="13.9" height="84.3" transform="translate(374.4 129.4)" fill="#dfd9ce"/>
    <path id="Path_61" data-name="Path 61" d="M482.7,213.8l-54.9-56.5-5.3-6v62.5H406.7V129.4h15.2l53.2,56.4,5.5,6V129.4h15.8v84.4Z" fill="#dfd9ce"/>
    <g id="Group_65" data-name="Group 65">
      <path id="Path_62" data-name="Path 62" d="M548.7,213.8l-2-5.7c-2.3,4.8-7.2,7.2-12.9,7.2-11.2,0-18.1-8-18.1-19.4V147.3c0-10.5,7.9-19.4,20.3-19.4s19.4,8.6,19.4,19.4v11.3H542.7v-12c0-3.5-2.2-6.5-6.7-6.5a6.268,6.268,0,0,0-6.7,6.6v50.2a6.374,6.374,0,0,0,6.8,6.7c4.6,0,6.8-3,6.8-6.7V181h-6.6v-9.4H556v42.2Z" fill="#dfd9ce"/>
    </g>
    <path id="Path_63" data-name="Path 63" d="M190.4,340.4V274.3l-4.2,9-29.9,57.1h-9.1l-29.5-57.1-4.2-9v66.1H98.9V256.1h21.2l28.4,56.7,3.9,8.6,3.9-8.6,28-56.7h21v84.3Z" fill="#dfd9ce"/>
    <path id="Path_64" data-name="Path 64" d="M246.6,274.3l-8,33.2h16.2ZM263,340.4l-5.5-21.8H235.8l-5.2,21.8H217.4l22.3-84.3H254l22.6,84.3H263Z" fill="#dfd9ce"/>
    <path id="Path_65" data-name="Path 65" d="M402.4,268v72.4H388.3V268H363.7V256.1H427V268Z" fill="#dfd9ce"/>
    <path id="Path_66" data-name="Path 66" d="M324.4,268v72.4H308.6V268H271.7V256.1h89.6V268Z" fill="#dfd9ce"/>
    <path id="Path_67" data-name="Path 67" d="M440.9,340.4V256.1h33.7V268H454.3v26.3h14.1v11.1H454.3v22.7h20.3v12.3Z" fill="#dfd9ce"/>
    <g id="Group_66" data-name="Group 66">
      <path id="Path_68" data-name="Path 68" d="M541.9,279c0-5.7-3.5-10.6-13.8-10.6H504.4v26.1h23.7c9.3,0,13.8-4.7,13.8-11.7Zm10.8,61.9c-7.7,0-10.6-4.6-10.9-13.2l-.3-11.1c-.3-7.5-3.4-11.4-15-11.4H504.3v35.2H489.7V256.1H527c21,0,29.8,9.2,29.8,22v2.8c0,9.2-4.1,16.3-17.1,18.7,12.9,1.1,16.7,8.6,16.7,17.2l.1,9.9c0,4.2,1.1,6.7,4.7,8.9v5.3h-8.5Z" fill="#dfd9ce"/>
    </g>
  </g>
</svg>
