<?xml version="1.0" encoding="utf-8"?>
<!-- Generator: Adobe Illustrator 23.1.1, SVG Export Plug-In . SVG Version: 6.00 Build 0)  -->
<svg version="1.1" id="Layer_1" xmlns="http://www.w3.org/2000/svg" xmlns:xlink="http://www.w3.org/1999/xlink" x="0px" y="0px"
	 viewBox="0 0 57 146" style="enable-background:new 0 0 57 146;" xml:space="preserve">
<style type="text/css">
	.st0{fill:#FF0000;}
	.st1{fill:#FFE610;}
	.st2{fill:#CCCCCC;}
	.st3{fill:#F2F2F2;}
	.st4{fill:#FFFFFF;}
</style>
<g>
	<path class="st0" d="M50.2,68.8c-0.3-4.9-3.8-7.4-6-8.5c-1.3,11.4-3.2,21.5-3.8,24.3l3.4,3.6C45.9,84.3,50.5,74.6,50.2,68.8z"/>
	<path d="M53.2,68.6c-0.5-7.2-6.2-10.4-8.6-11.5c0.5-5.1,0.8-10.2,0.8-15c0-19.6-6.1-25-14.6-32.6c-0.6-0.5-1.4-0.5-2,0
		c-8.5,7.6-14.6,13-14.6,32.6c0,4.8,0.3,10,0.8,15c-2.4,1-8.1,4.3-8.6,11.5C5.8,77,13.7,91,14,91.6c0.2,0.4,0.7,0.7,1.1,0.7
		c0.1,0,0.1,0,0.2,0c0.4,0,0.8-0.2,1.1-0.5l4.9-5.2h1.5c-0.1,0.5-0.2,1-0.2,1.5c0,3.4,5,12.6,5.9,14.4c0.3,0.5,0.8,0.8,1.3,0.8
		c0.5,0,1.1-0.3,1.3-0.8c1-1.8,5.9-11,5.9-14.4c0-0.5-0.1-1-0.2-1.5h1.2l4.9,5.2c0.3,0.3,0.7,0.5,1.1,0.5c0.1,0,0.1,0,0.2,0
		c0.5-0.1,0.9-0.3,1.1-0.7C45.8,91,53.7,77,53.2,68.6z M34.1,88.1c0,1.6-2.2,6.5-4.3,10.5c-2.1-4-4.3-8.9-4.3-10.5
		c0-0.5,0.1-1.1,0.3-1.5h7.9C34,87.1,34.1,87.6,34.1,88.1z M21.9,83.6c-1-5.1-4.8-25.5-4.8-41.5c0-11.8,2.2-17.9,6-22.8
		c1.7,2,4.1,3.2,6.8,3.2c2.6,0,5-1.1,6.6-3c3.8,4.8,5.9,10.9,5.9,22.6c0,16-3.8,36.4-4.8,41.5H21.9z M9.3,68.8
		c0.3-4.9,3.8-7.4,6-8.5c1.3,11.4,3.2,21.5,3.8,24.3l-3.4,3.6C13.6,84.3,9,74.7,9.3,68.8z M29.7,12.6c1.8,1.6,3.3,3,4.8,4.5
		c-1.1,1.4-2.8,2.3-4.6,2.3c-1.9,0-3.7-0.9-4.8-2.5C26.5,15.6,28.1,14.2,29.7,12.6z M40.4,84.6c0.6-2.8,2.5-13,3.8-24.3
		c2.1,1.1,5.6,3.6,6,8.5c0.4,5.8-4.2,15.5-6.3,19.5L40.4,84.6z"/>
	<path class="st0" d="M19.1,84.6c-0.6-2.8-2.5-13-3.8-24.3c-2.1,1.1-5.6,3.6-6,8.5c-0.4,5.9,4.2,15.5,6.3,19.5L19.1,84.6z"/>
	<path class="st1" d="M25.6,88.1c0,1.6,2.2,6.5,4.3,10.5c2.1-4,4.3-8.9,4.3-10.5c0-0.5-0.1-1.1-0.3-1.5h-7.9
		C25.7,87.1,25.6,87.6,25.6,88.1z"/>
	<path d="M21.7,101.1c-0.8,0-1.5,0.7-1.5,1.5v20.1c0,0.8,0.7,1.5,1.5,1.5s1.5-0.7,1.5-1.5v-20.1C23.2,101.8,22.5,101.1,21.7,101.1z"
		/>
	<path d="M38.1,101.1c-0.8,0-1.5,0.7-1.5,1.5v20.1c0,0.8,0.7,1.5,1.5,1.5s1.5-0.7,1.5-1.5v-20.1C39.6,101.8,38.9,101.1,38.1,101.1z"
		/>
	<path d="M29.9,109.6c-0.8,0-1.5,0.7-1.5,1.5v23.4c0,0.8,0.7,1.5,1.5,1.5s1.5-0.7,1.5-1.5v-23.4C31.4,110.3,30.7,109.6,29.9,109.6z"
		/>
	<path class="st2" d="M37.6,83.6c1-5.1,4.8-25.5,4.8-41.5c0-11.7-2.1-17.7-5.9-22.6c-1.7,1.9-4,3-6.6,3c-2.7,0-5.1-1.2-6.8-3.2
		c-3.8,4.9-6,10.9-6,22.8c0,16,3.8,36.4,4.8,41.5H37.6z M20.9,42.5c0-4.9,4-8.9,8.9-8.9s8.9,4,8.9,8.9s-4,8.9-8.9,8.9
		S20.9,47.4,20.9,42.5z"/>
	<path class="st0" d="M29.9,19.5c1.9,0,3.5-0.9,4.6-2.3c-1.4-1.5-3-3-4.8-4.5c-1.7,1.5-3.2,2.9-4.6,4.4C26.2,18.6,28,19.5,29.9,19.5
		z"/>
	<circle class="st3" cx="29.7" cy="42.5" r="5.9"/>
	<path d="M38.6,42.5c0-4.9-4-8.9-8.9-8.9s-8.9,4-8.9,8.9s4,8.9,8.9,8.9S38.6,47.4,38.6,42.5z M29.7,36.7c3.2,0,5.9,2.6,5.9,5.9
		s-2.6,5.9-5.9,5.9s-5.9-2.6-5.9-5.9S26.5,36.7,29.7,36.7z"/>
</g>
</svg>
