<?xml version="1.0" encoding="utf-8"?>
<!-- Generator: Adobe Illustrator 23.1.1, SVG Export Plug-In . SVG Version: 6.00 Build 0)  -->
<svg version="1.1" id="Layer_1" xmlns="http://www.w3.org/2000/svg" xmlns:xlink="http://www.w3.org/1999/xlink" x="0px" y="0px"
	 viewBox="0 0 57 146" style="enable-background:new 0 0 57 146;" xml:space="preserve">
<style type="text/css">
	.st0{fill:#FF0000;}
	.st1{fill:#FFE610;}
	.st2{fill:#CCCCCC;}
	.st3{fill:#F2F2F2;}
	.st4{fill:#FFFFFF;}
</style>
<g>
	<path class="st0" d="M43,60.3c-1.3,11.4-3.2,21.5-3.8,24.3l3.4,3.6c2.1-4,6.7-13.6,6.3-19.5C48.6,63.9,45.1,61.4,43,60.3z"/>
	<path d="M51.9,68.6c-0.5-7.2-6.2-10.4-8.6-11.5c0.5-5.1,0.8-10.2,0.8-15c0-19.6-6.1-25-14.6-32.6c-0.6-0.5-1.4-0.5-2,0
		c-8.5,7.6-14.6,13-14.6,32.6c0,4.8,0.3,10,0.8,15c-2.4,1-8.1,4.3-8.6,11.5c-0.6,8.4,7.3,22.4,7.7,23c0.2,0.4,0.7,0.7,1.1,0.7
		c0.1,0,0.1,0,0.2,0c0.4,0,0.8-0.2,1.1-0.5l4.9-5.2h16.9l4.9,5.2c0.3,0.3,0.7,0.5,1.1,0.5c0.1,0,0.1,0,0.2,0
		c0.5-0.1,0.9-0.3,1.1-0.7C44.6,91,52.5,77,51.9,68.6z M28.5,12.6c1.6,1.4,3.1,2.8,4.4,4.2c-1.1,1.2-2.6,1.9-4.3,1.9
		c-1.7,0-3.3-0.8-4.4-2C25.5,15.4,26.9,14,28.5,12.6z M14.4,88.3c-2.1-4-6.7-13.6-6.3-19.5c0.3-4.9,3.8-7.4,6-8.5
		c1.3,11.4,3.2,21.5,3.8,24.3L14.4,88.3z M36.3,83.6H20.7c-1-5.1-4.8-25.5-4.8-41.5c0-12.1,2.3-18.2,6.3-23.1c1.6,1.8,4,2.8,6.4,2.8
		c2.4,0,4.7-1,6.3-2.7c4,4.9,6.2,11,6.2,23C41.1,58.1,37.3,78.5,36.3,83.6z M42.6,88.3l-3.4-3.6c0.6-2.8,2.5-13,3.8-24.3
		c2.1,1.1,5.6,3.6,6,8.5C49.3,74.6,44.7,84.3,42.6,88.3z"/>
	<path class="st0" d="M8.1,68.8c-0.4,5.9,4.2,15.5,6.3,19.5l3.4-3.6c-0.6-2.8-2.5-13-3.8-24.3C11.9,61.4,8.4,63.9,8.1,68.8z"/>
	<path class="st2" d="M34.9,19.1c-1.6,1.7-3.9,2.7-6.3,2.7c-2.5,0-4.8-1-6.4-2.8c-4,4.9-6.3,11-6.3,23.1c0,16,3.8,36.4,4.8,41.5
		h15.7c1-5.1,4.8-25.5,4.8-41.5C41.1,30.1,38.9,24,34.9,19.1z M28.5,51.4c-4.9,0-8.9-4-8.9-8.9s4-8.9,8.9-8.9s8.9,4,8.9,8.9
		S33.4,51.4,28.5,51.4z"/>
	<path class="st0" d="M28.6,18.7c1.7,0,3.2-0.7,4.3-1.9c-1.3-1.4-2.8-2.7-4.4-4.2c-1.6,1.4-3,2.7-4.3,4.1
		C25.3,18,26.9,18.7,28.6,18.7z"/>
	<circle class="st4" cx="28.5" cy="42.5" r="5.9"/>
	<path d="M28.5,33.7c-4.9,0-8.9,4-8.9,8.9s4,8.9,8.9,8.9s8.9-4,8.9-8.9S33.4,33.7,28.5,33.7z M28.5,48.4c-3.2,0-5.9-2.6-5.9-5.9
		s2.6-5.9,5.9-5.9s5.9,2.6,5.9,5.9S31.7,48.4,28.5,48.4z"/>
</g>
</svg>
