<svg xmlns="http://www.w3.org/2000/svg" width="216.6" height="60.8" viewBox="0 0 216.6 60.8">
  <g id="it-does-not-exonerate-him" transform="translate(-302.1 -535.7)">
    <path id="Path_90" data-name="Path 90" d="M302.9,535.7h4.6v4.1h-4.6Zm0,6.8h4.6v17.4h-4.6Z" fill="#dfd9ce"/>
    <path id="Path_91" data-name="Path 91" d="M309.7,542.5h2.4v-5.4h4.5v5.4h3v3h-3v9.2a1.487,1.487,0,0,0,1.7,1.7h1.4v3.4s-1,.1-2.9.1c-2.2,0-4.7-.9-4.7-4.2V545.5h-2.4Z" fill="#dfd9ce"/>
    <path id="Path_92" data-name="Path 92" d="M327.1,551.2c0-5.4,3.1-9.2,7.4-9.2a5.407,5.407,0,0,1,4.9,2.6h.1v-8.9h4.6v24.2h-4.4v-2.3h-.1a5.661,5.661,0,0,1-5.2,2.8C330.1,560.4,327.1,556.9,327.1,551.2Zm12.5.1c0-3.3-1.1-5.5-4-5.5-2.5,0-3.8,2.2-3.8,5.4,0,3.3,1.3,5.3,3.7,5.3C338.2,556.6,339.6,554.5,339.6,551.3Z" fill="#dfd9ce"/>
    <path id="Path_93" data-name="Path 93" d="M346.4,551.2a9.1,9.1,0,1,1,9.1,9.2A8.852,8.852,0,0,1,346.4,551.2Zm13.5,0c0-3.4-1.6-5.7-4.4-5.7s-4.4,2.3-4.4,5.7,1.6,5.6,4.4,5.6C358.3,556.9,359.9,554.6,359.9,551.2Z" fill="#dfd9ce"/>
    <path id="Path_94" data-name="Path 94" d="M366,551.2c0-5.1,3.5-9.1,8.6-9.1,5.6,0,8.6,4.3,8.6,10.5H370.6c.3,2.7,1.8,4.3,4.4,4.3a3.165,3.165,0,0,0,3.3-2.1h4.5c-.6,3.1-3.4,5.7-7.8,5.7C369.3,560.4,366,556.4,366,551.2Zm4.6-1.9h7.7a3.629,3.629,0,0,0-3.7-3.7C372.2,545.6,371,547.1,370.6,549.3Z" fill="#dfd9ce"/>
    <path id="Path_95" data-name="Path 95" d="M384.4,554.3h4.3c.3,2,1.7,2.9,3.8,2.9,2,0,3.2-.8,3.2-2,0-1.7-2.2-1.8-4.6-2.3-3.1-.6-6.2-1.5-6.2-5.2,0-3.8,3.1-5.5,7.1-5.5,4.6,0,7.1,2.3,7.4,5.8h-4.2c-.2-1.9-1.4-2.5-3.3-2.5-1.8,0-3,.7-3,1.9,0,1.5,2.3,1.6,4.8,2.1,2.9.6,6.1,1.4,6.1,5.5,0,3.5-3,5.6-7.3,5.6C387.4,560.4,384.6,558,384.4,554.3Z" fill="#dfd9ce"/>
    <path id="Path_96" data-name="Path 96" d="M412.4,544.9h.1a5.552,5.552,0,0,1,5.1-2.8c3.6,0,6,2.7,6,6.5v11.3H419V549.2a2.891,2.891,0,0,0-3-3.2c-2,0-3.5,1.6-3.5,4v9.8h-4.6V542.4h4.5Z" fill="#dfd9ce"/>
    <path id="Path_97" data-name="Path 97" d="M425.8,551.2a9.1,9.1,0,1,1,9.1,9.2A8.852,8.852,0,0,1,425.8,551.2Zm13.4,0c0-3.4-1.6-5.7-4.4-5.7s-4.4,2.3-4.4,5.7,1.6,5.6,4.4,5.6C437.6,556.9,439.2,554.6,439.2,551.2Z" fill="#dfd9ce"/>
    <path id="Path_98" data-name="Path 98" d="M444.8,542.5h2.4v-5.4h4.5v5.4h3v3h-3v9.2a1.487,1.487,0,0,0,1.7,1.7h1.4v3.4s-1,.1-2.9.1c-2.2,0-4.7-.9-4.7-4.2V545.5h-2.4Z" fill="#dfd9ce"/>
    <path id="Path_99" data-name="Path 99" d="M302.1,587.2c0-5.1,3.5-9.1,8.6-9.1,5.6,0,8.6,4.3,8.6,10.5H306.7c.3,2.7,1.8,4.3,4.4,4.3a3.165,3.165,0,0,0,3.3-2.1h4.5c-.6,3.1-3.4,5.7-7.8,5.7C305.3,596.4,302.1,592.3,302.1,587.2Zm4.6-1.9h7.7a3.629,3.629,0,0,0-3.7-3.7C308.3,581.6,307.1,583,306.7,585.3Z" fill="#dfd9ce"/>
    <path id="Path_100" data-name="Path 100" d="M325.6,586.6l-5.6-8.2h5.2l3.1,5h.1l2.9-5h4.8l-5.4,8.1,6.2,9.2h-5.5l-3.2-5.8h-.1l-3.8,5.8h-5Z" fill="#dfd9ce"/>
    <path id="Path_101" data-name="Path 101" d="M336.7,587.2a9.1,9.1,0,1,1,9.1,9.2A8.852,8.852,0,0,1,336.7,587.2Zm13.5,0c0-3.4-1.6-5.7-4.4-5.7s-4.4,2.3-4.4,5.7,1.6,5.6,4.4,5.6S350.2,590.6,350.2,587.2Z" fill="#dfd9ce"/>
    <path id="Path_102" data-name="Path 102" d="M361.7,580.9h.1a5.552,5.552,0,0,1,5.1-2.8c3.6,0,6,2.7,6,6.5v11.3h-4.6V585.2a2.891,2.891,0,0,0-3-3.2c-2,0-3.5,1.6-3.5,4v9.8h-4.6V578.4h4.5Z" fill="#dfd9ce"/>
    <path id="Path_103" data-name="Path 103" d="M375.1,587.2c0-5.1,3.5-9.1,8.6-9.1,5.6,0,8.6,4.3,8.6,10.5H379.7c.3,2.7,1.8,4.3,4.4,4.3a3.165,3.165,0,0,0,3.3-2.1h4.5c-.6,3.1-3.4,5.7-7.8,5.7C378.3,596.4,375.1,592.3,375.1,587.2Zm4.6-1.9h7.7a3.629,3.629,0,0,0-3.7-3.7C381.3,581.6,380.1,583,379.7,585.3Z" fill="#dfd9ce"/>
    <path id="Path_104" data-name="Path 104" d="M398.9,581.3h.1c1-2,2.2-3,4.3-3a3.421,3.421,0,0,1,1.1.1v4h-.1c-3-.3-5.2,1.3-5.2,4.9v8.5h-4.6V578.4h4.4v2.9Z" fill="#dfd9ce"/>
    <path id="Path_105" data-name="Path 105" d="M416.4,593.9h0c-.9,1.3-2.2,2.3-5.2,2.3-3.6,0-6.1-1.9-6.1-5.3,0-3.8,3.1-5,7-5.6,2.9-.4,4.2-.6,4.2-2,0-1.3-1-2.1-2.9-2.1-2.2,0-3.2.8-3.3,2.4H406c.1-3,2.4-5.7,7.5-5.7,5.2,0,7.3,2.3,7.3,6.4v8.8q0,1.95.6,2.4v.2H417A3.114,3.114,0,0,1,416.4,593.9Zm.1-4.2v-2.6a13.381,13.381,0,0,1-3.2,1c-2.4.5-3.6,1.1-3.6,2.7s1.1,2.2,2.7,2.2C415,593,416.5,591.4,416.5,589.7Z" fill="#dfd9ce"/>
    <path id="Path_106" data-name="Path 106" d="M422.5,578.5h2.4v-5.4h4.5v5.4h3v3h-3v9.2a1.487,1.487,0,0,0,1.7,1.7h1.4v3.4s-1,.1-2.9.1c-2.2,0-4.7-.9-4.7-4.2V581.5h-2.4Z" fill="#dfd9ce"/>
    <path id="Path_107" data-name="Path 107" d="M433.9,587.2c0-5.1,3.5-9.1,8.6-9.1,5.6,0,8.6,4.3,8.6,10.5H438.5c.3,2.7,1.8,4.3,4.4,4.3a3.165,3.165,0,0,0,3.3-2.1h4.5c-.6,3.1-3.4,5.7-7.8,5.7C437.2,596.4,433.9,592.3,433.9,587.2Zm4.6-1.9h7.7a3.629,3.629,0,0,0-3.7-3.7C440.1,581.6,438.9,583,438.5,585.3Z" fill="#dfd9ce"/>
    <path id="Path_108" data-name="Path 108" d="M463.8,580.8h.1a5.614,5.614,0,0,1,5-2.7c3.6,0,6,2.7,6,6.5v11.3h-4.6V585.2a2.891,2.891,0,0,0-3-3.2c-2,0-3.5,1.6-3.5,4v9.8h-4.6V571.6h4.6Z" fill="#dfd9ce"/>
    <path id="Path_109" data-name="Path 109" d="M477.9,571.7h4.6v4.1h-4.6Zm0,6.8h4.6v17.4h-4.6Z" fill="#dfd9ce"/>
    <path id="Path_110" data-name="Path 110" d="M485.7,578.5h4.4v2.3h.1a5.52,5.52,0,0,1,5-2.8,5.13,5.13,0,0,1,4.8,3h.1a6,6,0,0,1,5.2-3c3.7,0,5.7,2.4,5.7,6.2v11.7h-4.6V585c0-2-1-3-2.7-3-1.9,0-3.1,1.5-3.1,3.8v10.1H496V585c0-2-1-3-2.7-3-1.9,0-3.1,1.5-3.1,3.8v10.1h-4.6V578.5Z" fill="#dfd9ce"/>
    <path id="Path_111" data-name="Path 111" d="M513.8,590.9h4.9v4.9h-4.9Z" fill="#dfd9ce"/>
  </g>
</svg>
