<svg version="1.1" id="Layer_1" xmlns="http://www.w3.org/2000/svg" x="0" y="0" viewBox="0 0 243.6 271.4" xml:space="preserve">
  <style>
    .st0 {
      fill: #fff;
      fill-opacity: 0.6;
      stroke: #000;
      stroke-width: 0.35;
      stroke-miterlimit: 10;
    }
    circle {
      fill: #AA272F;
      stroke: #AA272F;
      stroke-width: 1px;
      stroke-opacity: 1;
    }
    .pulse {
      fill: white;
      fill-opacity: 0;
      transform-origin: 100.286px 122.532px;
      animation-duration: 1.75s;
      animation-name: pulse;
      animation-iteration-count: infinite;
    }

    @keyframes pulse {
      from {
        stroke-width: 3px;
        stroke-opacity: 1;
        transform: scale(0.3);
      }
      to {
        stroke-width: 0;
        stroke-opacity: 0;
        transform: scale(2);
      }
    }
  </style>
  <g id="israel">
    <path
      id="IL-GH"
      class="st0"
      d="M133.645 61.387l-.826 1.443-.67 1.472-.741.794-1.12 2.01-1.425 1.655-.042-.18-.289-.164-.996.41-.474.058-.228.193-.177.402-.185.733-1.041.143-.657.665-.726.514-.453.138-.326.212-1.131.079-.545.352-.024-.339-.13-.143-.874-.395-.331-.236.013-.106.866-.879.511-1.07.14-.948.082-1.965.32-1.221.087-.816-.124-.861-.199-.514-.593-1.162-.402-.432-.191-.328-.342.148-.209-.117-.095-.23.013-.281.265-.585.093-.463.201-2.775-.077-1.252-.527-.99-.016-.254.749-.749.471-.9.214-.249.49-.148.132.154.016-1.409.124-1.186.681-1.816.169-.659.003-.365-.22-.945-.082-.723.032-1.184.222-.85.392-.906-.042-.14-.262-.154-.575-.077-.273.034-.598.32-.342.087-.339-.082-.381-.357.172-.432.214-.281 1.324-.622 1.395-.837.471-.453.678-1.083.379-.344.283-.111 1.147.098.694-.119.916-.381.847-.691.267-.365.143-.429.212-1.385.392-.625.694-.506 2.513-1.393.236.183.064.389-.164.694-.477.789-.908 1.035-.389 1.012-.14.982.22 2.206-.069.371-.524.895.339.408.673.575.297.413.151.262.307 1.104.058.638-.09.432-.172.442-.408.445-.146.291.087.588.379.135.625.066.347.162.964 1.393-.109 1.422-.731.646-.085.225.103.297.516.585.053.233-.066.132-.244.146-.514.061-.908-.241-.193.156-.109.283.23.948-.135 1.705.238.776.392 3.604.794 1.102.156.379.003.299-.209.577-.169.303z"/>
    <path
      id="IL-Z"
      class="st0"
      d="M112.226 87.268l-.302-.267.013-.273-.323-.418-.265-.778.056-1.075-.143-1.155-.741-1.255-.739-.551-.387-.095-.876-.016-2.232.41-.532-.003-.363-.095-.718-.355-.699-.514-.816-.845-.63-.344-.442.066-.244.122-.254.289-.241-.408-.114-.119-.532-.209-.151-.106-.344-.643-.127-.119-.164-.074-.265.103-.331.54-.495.238-.138.119-.077.405-.101.151-.294.09-.302.553-.191.164-.278.103h-.127l-.749-.238h-.71l-.191-.061-.164-.193-.114-.27-.177-.074-.077.058-.204.016-.138-.357-.14-.106-.278-.09-.09-.286.14-.463.024-.357-.114-.135-.252-.106-.114-.254-.09-.045-.214.016-.127-.122-.077-.283v-.45l-.177-.193-.087-.032-.13-.119-.037-.209.103-.151.177-.058h.342l.355.148.214.032.281-.061.037-.196-.101-.148-.686-.18-.151-.209-.026-.225.05-.315.177-.315.127-.135.254-.103h.228l.278.074.508.254h.204l.138-.119.14-.225.328-.778.154-.212.8-.448.124-.122.077-.164-.013-.328-.149-.215-.217-.164-.074-.18.024-.54.064-.18.114-.119.114-.016.127.122.23.389.087.045.164-.061.291-.328.077-.167.04-.209v-.119l-.103-.27.432-.315.101-.135.026-.106-.204-.54-.024-.225.024-.103.673-1.067.026-.315.087-.286-.013-.238-.087-.254-.241-.376-.331-.81-.011-.331.177-.691-.04-.209-.291-.212-.85-.254-.469-.405-.405-.212v-.196l.151-.585.013-.238-.101-.138-.241-.135-.177-.193-.101-.27-.04-.331-.085-.021.135-.988-.183-.538-.318.045-.087-.13-.103-.077-.151-.013-.05.045v.119l-.09-.029-.114.013v-.121l.204-.54.024-.392.177-.736.013-.437.04-.09-.013-.18.024-.016v-.151l.053-.18-.013-.074.114-.286v-.135l.077-.032v-.405l.05-.045.037-.225.177-.331-.013-.212-.037-.074.037-.032v-.196l.064-.119-.011-.151.074-.164-.013-.045.064-.032-.024-.151.087-.18.04-.225.064-.122.024-.225.127-.225-.05-.029v-.122l.127-.106-.026-.029.04-.122-.028-.074.09-.135-.026-.151h.037l-.011-.164.061-.048.013-.344.05-.106.026-.498.05-.09V51.1l-.037-.048v-.514l2.036-.029 1.438-.122 1.618.281.159-.069.262-.283.527-.172 1.689-.056 1.758-.246.903.214.768 1.459.429.493.688.408.265.077 1.16-.516 1.252-.101.331-.175.778-.749.225-.307.373-.275.199-.021.805.193.771-.291.109-.13.061-.686.103-.228.869-.368.228-.543.093-1.186.286-1.316.294-.511.225-.604-.037-.659-.164-.741.021-.424.389-.887.265-.222.429-.564.437-.964.109-.114.32.262 1.08 1.541.177.056.167-.162.381.357.339.082.342-.087.598-.32.273-.034.575.077.262.154.042.14-.392.906-.222.85-.032 1.184.082.723.22.945-.003.365-.169.659-.681 1.816-.124 1.186-.016 1.409-.132-.154-.49.148-.214.249-.471.9-.749.749.016.254.527.99.077 1.252-.201 2.775-.093.463-.265.585-.013.281.095.23.209.117.342-.148.191.328.402.432.593 1.162.199.514.124.861-.087.816-.32 1.221-.082 1.965-.14.948-.511 1.07-.866.879-.013.106.331.236.874.395.13.143.024.339-1.287.561-.297.339.085.76-.516.204.021.328-.111.13-.402.114-.659.5-.061.553.143.167-.066.802.103.249.339.185.09.336-.217.503-.032.506.469.972-.045.111-.455-.005-.082.508-.209-.005-.265-.175-.098.053.029.32.307.498-.101.169-.461.098-.244.342.217.164.294-.008.291.665.342.138.087.146-.056.275-.564 1.014-.04.273.071.244.379.185.093.18-.114.265-.222.008-.154.14.111.712-.535.167.132 1.218-.079.199-.342.101-.048.087.437.736-.373-.037-1.059-.305-1.345-.628-.572-.175-1.038-.045-.683.199-.578-.092z"/>
    <path
      id="IL-HA"
      class="st0"
      d="M85.836 87.271l-.026-.045.053-.122.087-.042.037-.122v-.029h-.124l.074-.103v-.077l.064-.119.103-.045-.013-.045.024-.013.191-.927.026-.434.138-.418.077-.405-.101-.267h-.559v-.077l.495-.013.037-.032.026-.119.05.045.013.106h.151l.013-.032h-.087l-.04-.042v-.061l.05-.016.026-.103v-.061l-.05-.016v-.042l.05-.016.013.045h.037l.064-.045-.026-.045.013-.164.14-.241-.026-.074-.074.029-.013-.209.05-.029v-.119l.05-.09-.026-.061.09-.103v-.106l-.05-.045.024-.177.103-.077.013-.209.124-.164-.124-.016-.013-.074h.064l.074-.164.103-.45.05-.074.013-.193.064-.122-.013-.193-.077-.016-.037-.045V80.2l.064-.2.101-.103.09.013.074-.148-.013-.062-.087-.013v-.09l-.064-.045.151-.286-.037-.074.013-.119.077-.09.101-.373.05.029.026-.061-.026-.103.101-.196-.024-.119-.09-.09v-.09l.09-.09.037-.209-.05-.029v-.077l.077-.222.074-.106-.037-.061.037-.103-.011-.254.05-.106v-.135l-.04-.029.053-.151.05-.479.064-.016.064-.148.024-.434.077-.331.087-.148-.074-.045.064-.331-.013-.238.114-.106.013-.061.013-.479.074-.495-.013-.448.053-.106v-.045l-.053-.045v-.074l.026-.032-.013-.103.077-.061-.013-.09-.064-.045v-.119l.077-.225v-.119l.14-.167v-.074l.101-.106.177.016.127-.164.087-.196.053-.225-.04-.135.09-.106.05-.553.101-.241.09-1.049.05-.196v-.469l.024-.209.053-.119.061-.765-.05-.241h.064l.013-.029.037-.36-.011-.183-.064-.119h.037l.026-.045.037.045.037-.016v-.045l-.037-.013.037-.122-.05-.045-.037-.135v-.479l.064-.074-.05-.09.074-.09.114.029.281-.27.138-.032.167.016.228-.119.05-.09.037-.032.04.016.037-.061h.114l.167.077.114.209h.114l.064.061.228.09.138.013v.045l.064.077.344.016.328-.093v.048l-.151.058-.026-.029-.101.074h-.05l-.318-.029-.191-.061-.228-.164-.101.029.064.016.024.058.05.016-.011.061.265.135.037.074.053.016.074.09.026.106.05-.032v-.148h.05l.026.135h.064l.024-.09-.064-.061v-.061l.013-.029.077.016.101.148.04.286.087.029.05.122h.164l.064-.045.14-.016-.037-.106.05-.013.201.135.04.238.254-.074.011-.045-.037-.061-.127-.013-.024-.151-.103.016-.074-.045.201-.061.405-.27.09-.016.05-.103.077-.016v-.061l.087-.045v-.074l.064-.061.077-.164.177-.167.267-.389.455-1.067.077-.029-.026-.106.114-.376.05-.029-.013-.061.103-.286.064-.045-.026-.058.127-.437-.013-.061.114-.585.013-.664-.127-.259.318-.045.183.538-.135.988.085.021.04.331.101.27.177.193.241.135.101.138-.013.238-.151.585v.196l.405.212.469.405.85.254.291.212.04.209-.177.691.011.331.331.81.241.376.087.254.013.238-.087.286-.026.315-.673 1.067-.024.103.024.225.204.54-.026.106-.101.135-.432.315.103.27v.119l-.04.209-.077.167-.291.328-.164.061-.087-.045-.23-.389-.127-.122-.114.016-.114.119-.064.18-.024.54.074.18.215.166.151.212.013.328-.077.164-.124.122-.8.448-.154.212-.328.778-.14.225-.138.119H95.2l-.508-.254-.278-.074h-.228l-.254.103-.127.135-.177.315-.05.315.026.225.151.209.686.18.101.148-.037.196-.281.061-.214-.032-.355-.148h-.342l-.177.058-.103.151.037.209.13.119.087.032.177.193v.45l.077.283.127.122.214-.016.09.045.114.254.252.106.114.135-.024.357-.14.463.09.286.278.09.14.106.138.357.204-.016.077-.058.177.074.114.27.164.193.191.061h.71l.749.238h.127l.278-.103.191-.164.302-.553.294-.09.101-.151.077-.405.138-.119.495-.238.331-.54.265-.103.164.074.127.119.344.643.151.106.532.209.114.119.241.408-.583.659-.159.328-.548.53-.898.654-1.139.58-1.835.694-.347.262-.424.794-.201.749-.214 1.38-.397 1.102-.093.67-.209-.013-1.271.402h-.328l-.204-.045-.318-.418-.315-.18-.167-.328-.228-.254-.151-.106-.191-.058H90.28l-.696-.164-.696-.045-.445.058-.545.209-.328.016-.204-.045-.519-.225-.418-.074-.593.026z"/>
    <path
      id="IL-M"
      class="st0"
      d="M76.923 115.977l.418-1.046.05-.225.14-.297v-.058l.05-.061.064-.326.077-.148.011-.18.053-.013.011-.061.04-.013v-.106l.024-.045h.04v-.074h.024l.103-.177.064-.029.011-.09.381-.564.328-.805.318-.831.559-1.928.373.061.214.164.305.058.813-.013.392.222.318.045.71-.045.381-.106.315-.297.609-.744.305-.177h.228l.254.103.228.387.177.074.254-.103.05-.09.14-.087.305-.077.442.045.177-.177.013-.238-.064-.177-.191-.196-.506-.222-.241-1.459-.064-.177-.177-.193-.445-.299-.151-.209-.037-.207.037-.299.064-.177.013-.463.064-.416.392-.477.305-.551.14-.344.011-.461-.127-.357.09-.283.026-.702-.077-.177-.395-.209-.138-.238-.241-.119-.342-.299-.357-.135-.974-.119-.336-.011.077-.204v-.074l-.04-.045.013-.077.14-.326.064-.061-.013-.119.114-.209.013-.177.138-.209.026-.209.064-.148-.026-.151.103-.103v-.238l.087-.389.077-.119.127-.344-.013-.177.05-.074.064-.209-.013-.045.143-.373.011-.222h-.04v-.045l.09-.151.026-.342.138-.27.026-.148.114-.254-.013-.18.05.032.04-.016-.026-.254.05-.267.05-.045-.011-.106.188-.85v-.061l-.064-.045-.011-.074.164-.09.013-.045.087-.506.05-.135v-.18l.077-.148.214-.988v-.177l.064-.328h-.074v-.032l.138-.132.04-.09.024-.209-.024-.18.074-.299-.087-.058.064-.135.05-.032.101-.267.04-.016.037-.222.59-.024.418.074.519.225.204.045.328-.016.545-.209.445-.058.696.045.696.164h1.091l.191.058.151.106.228.254.167.328.315.18.318.418.204.045h.328l1.271-.402.209.013-.095.694-.318.31-1.186.532-.305.384-.485.911-.05 1.448.214 1.538-.151.397-.387.275-.628.908-.824 1.867-.079.628.021.622.622.932.246.516.347 1.531.056.688-.146.561-.371.702-.053.426.143.357.477.508.524.998.151.617-.106.792-.365.797.011.36.087.289-.201.164.199.53-.625 1.335.111 1.213.699.943 1.043.831.22.858-.402 1.25-2.28.408-.04.061-1.173-.05-.707-.087-.41.045-.336.262-.41 1.181-.485.305-1.456.307-.747.262-.932.916-.201.519h-.103l-.14.103-.291.326-.458.638-.241.254-.138.103-.294.074-.151-.103-.254-.357-.328-1.025-.114-.252-.204-.297-.254-.222-.784-.445-.103-.016-.291.326-.14.106-.188.029-.432-.061-.217.045.04.148.355.148.087.283.254.238.013.117-.114.135-.114.013-.291-.074-.09.032-.013.342-.127.132-.418.074-.114-.016-.278-.222-.278-.074-.508-.029-.214-.164-.064-.177v-.132l.101-.148.214-.148.344-.148.127-.119.087-.164-.037-.209-.164-.207-.471-.252-.114-.267v-.209l.127-.238.164-.087.114-.016.458.164.201.029.241-.013.127-.106-.011-.577.114-.373-.09-.4.026-.103.355-.373.037-.193-.087-.148-.167-.087-.442.162-.318-.029-.278-.342-.228.029-.127.119-.177.074-.171-.013z"/>
    <path
      id="IL-TA"
      class="st0"
      d="M79.688 108.899l.101-.395.101-.236.04-.344.101-.132-.064-.045.09-.299.074-.119v-.087l.053-.119.064-.074.037-.328.151-.119v-.135l-.05-.042.14-.135h.087l.114-.09.14-.222.09-.283.064-.09.011-.132-.024-.032.077-.029-.053-.074.04-.045-.026-.013.026-.106.191-.445.011-.135.056-.029.034-.09-.064-.18v-.148l.101-.074.05.016.077-.238.114-.225-.064-.119.013-.087h.037l.026.074h.05l.14-.432.087-.448.114-.151.04-.103-.013-.058.037-.032.127-.49v-.225l.154-.387-.028-.168.14-.074-.013-.119-.09-.061.026-.342.05-.045.077.029.024-.045.18-.596.124-.67.09-.154.336.011.974.119.357.135.342.299.241.119.138.238.395.209.077.177-.026.702-.09.283.127.357-.011.461-.14.344-.305.551-.392.477-.064.416-.013.463-.064.177-.037.299.037.207.151.209.445.299.177.193.064.177.241 1.459.506.222.191.196.064.177-.013.238-.177.177-.442-.045-.305.077-.14.087-.05.09-.254.103-.177-.074-.228-.387-.254-.103h-.228l-.305.177-.609.744-.315.297-.381.106-.71.045-.318-.045-.392-.222-.813.013-.305-.058-.214-.164-.373-.056z"/>
    <path
      id="IL-D"
      class="st0"
      d="M113.656 137.529l-.019 2.725-.162 1.07-.752 2.145-1.726 3.101-.527 1.07-.49.866-.236 1.07.522 1.133 2.036 2.741.363.778.228 1.107.048.829-.31 1.358-.281.972-1.748 2.693-.185 1.08.109.863.373 1.033-.003 1.091-.792.728-1.716 1.125-1.218 2.69-.016.959.23.871-.233 1.067-.874.315-.681.824-.402 1.102-.005 2.155-.643 1.501-1.12 2.044-.241 1.173-.678.63-1.348 2.6-.109.869-1.033 4.787-.315.943-.63.906-.18.712 1.578 2.968.241.821-.146.628-1.014 1.123-.291.906.156 1.049-.869 1.928 1.43 6.326-3.532 5.068-.951 3.776.143 4.099-1.345 2.69-.204.985.132.781-.132 1.057-.778 3.238v1.764l.122 1.102.011 1.019-.598.733-.816.598-.694.805-.49.982-.445 1.25-.09-.029-.191.013-.114-.117h-.101l-.037.146-.053.016-.024.143-.064.074-.013.072h-.114l-.024.071-.117.045-.05.101-.037.217-.114.191h-.097v.042l-.14.159-.164.101-.04.146-.177.175v.217l-.114.072-.164.233-.09.072v.132l-.201.23-.191.087-1.152-1.335-.601-1.136-.217-.874-.183-1.523.429-1.425.214-1.427-.207-.982-.818-1.427.032-2.518-4.668-13.105.093-.792-1.478-4.086-3.932-11.119-.929-3.495-3.185-2.084-.117-1.618.945-2.664-1.981-2.322.132-2.878-1.321-5.497-4.02-8.444-2.606-7.629-3.765-12.498 2.055-1.541 2.031-1.753.503-.924-.011-1.433-.114-1.533.4-1.335 1.52-1.954 4.581-4.438 1.329-.318.405-.718-.005-1.025-.622-.919-1.983-1.854 1.102-1.793.191-.119.09-.132-.013-.029-.077-.016.013-.132-.04-.016v-.042l.154-.18v.061l-.114.132.127.029.024.045.04-.013.696-1.157.09-.312.164-.117.254-.328.101-.207-.013-.074.14-.177.074-.193.064-.045.026.061h.05l.773-1.38.14-.193.355-.712.201-.252.103-.297.506-.876.458-.98.228-.384.228-.551.077-.132.037-.016-.013-.045.127-.236.127-.357.164-.297.191-.445-.138-.148-.077-.254.013-.207.124-.312h.04v.103l-.05.032-.077.177v.252l.164.283h.103l.024-.074-.127-.074v-.045l.05-.029-.011-.148.037-.045.013-.119v-.045l-.05-.029v-.061h.114l.05.061h.291l.026-.074.101-.103.024-.061-.064-.029-.011-.074.011-.387.04-.029.013.058h.037v-.029l.101-.058.379-.953.294-.63h.172l.177-.074.127-.119.228-.029.278.342.318.029.442-.162.167.087.087.148-.037.193-.355.373-.026.103.09.4-.114.373.011.577-.127.106-.241.013-.201-.029-.458-.164-.114.016-.164.087-.127.238v.209l.114.267.471.252.164.207.037.209-.087.164-.127.119-.344.148-.214.148-.101.148v.132l.064.177.214.164.508.029.278.074.278.222.114.016.418-.074.127-.132.013-.342.09-.032.291.074.114-.013.114-.135-.013-.117-.254-.238-.087-.283-.355-.148-.04-.148.217-.045.432.061.188-.029.14-.106.291-.326.103.016.784.445.254.222.204.297.114.252.328 1.025.254.357.151.103.294-.074.138-.103.241-.254.458-.638.291-.326.14-.103h.174l.254.252.291.432.191.429.204.667.101.135.154.087.405-.087.228.029.164.058.228.283v.193l-.241.503.026.193.204.548.024.222-.024.342-.127.252-.04.209.064.8-.037.432.114.371v.368l-.077.416.114.267.699.4.659.445.62.342.204.177.254.355.71.177.151.074.993.771-.707 1.054-.402 2.005.199 2.171-.169.927-.914 1.734-1.012 1.305-.887 1.782.124 1.059.511.829.733.606 1.133.305 2.073-.273 1.912-.477 1.867.156 2.632.169.964-.5.633.146.988-.169.855-.074 1.096-.207.67-.402 1.332-1.364 1.136-1.279 1.478-.657 1.517-1.107 1.613-1.425.72-.254 3.016.045-.003.924z"/>
    <path
      id="IL-JM"
      class="st0"
      d="M101.949 123.299l-.064.101-2.301.058-1.944.797-2.386 2.359-2.14 1.027-.757.662-1.393 1.504-.416.694-.993-.771-.151-.074-.71-.177-.254-.355-.204-.177-.62-.342-.659-.445-.699-.4-.114-.267.077-.416v-.368l-.114-.371.037-.432-.064-.8.04-.209.127-.252.024-.342-.024-.222-.204-.548-.026-.193.241-.503v-.193l-.228-.283-.164-.058-.228-.029-.405.087-.154-.087-.101-.135-.204-.667-.191-.429-.291-.432-.254-.252h-.068l.201-.519.932-.916.747-.262 1.456-.307.485-.305.41-1.181.336-.262.41-.045.707.087 1.173.05-.522.771.381 1.433.882.379 1.26.18 1.162-.416.858-.932.869-.514 1.006.929.916.44 1.973.794 2.116-.011.831.869-.135 1.933-.475.745z"/>
    <path
      id="PS"
      class="st0"
      d="M71.238 133.71l.005 1.025-.405.72-1.321.315-4.223 4.088-.365.352-1.523 1.957-.18.598-.22.736.114 1.533.011 1.433-.503.924-1.687 1.456-.347.299-2.055 1.541-1.774-5.892.101-.077 1.356-1.327 1.56-1.671.495-.442.418-.384.85-.887.673-.739 1.078-1.3.267-.371.355-.413 1.001-1.109 2.079-2.682 1.144-1.652.493-.794 1.986 1.843.617.92zm46.932-36.099l-.127-.426-.045-.861-.177-.768.164-1.189-.312-.776.011-.381.222-.625-.357-.959.034-.432.146-.376.13-.805-.111-.315-.336-.418.087-.964-1.059-.305-1.345-.628-.575-.175-1.038-.045-.683.199-.577-.093-.302-.267.013-.273-.326-.418-.265-.778.056-1.075-.143-1.155-.741-1.255-.739-.551-.387-.095-.879-.013-2.232.41-.532-.003-.363-.095-.718-.355-.702-.514-.813-.845-.633-.344-.442.069-.241.122-.839.948-.159.328-.545.53-.9.654-1.136.58-1.835.694-.347.262-.273.511-.151.286-.201.749-.212 1.38-.397 1.102-.188 1.364-.32.31-1.186.532-.305.384-.485.911-.05 1.448.214 1.538-.151.4-.095.069-.289.207-.628.908-.826 1.867-.077.628.021.622.622.932.246.516.347 1.531.056.688-.146.561-.371.702-.026.214-.026.212.143.355.477.508.064.119.461.879.151.617-.106.789-.368.797.011.36.087.289-.201.164.201.53-.625 1.337.111 1.213.699.943 1.043.831.22.858-.405 1.25-2.277.408-.564.834.381 1.433.882.379 1.26.183 1.162-.418.858-.932.622-.368.249-.146 1.004.929.919.44 1.97.794 2.118-.011.831.869-.138 1.933-.477.744-.064.098-2.301.061-1.946.794-1.973 1.952-.413.408-2.14 1.027-.757.662-1.393 1.504-.416.694-.707 1.054-.402 2.002.199 2.171-.169.927-.914 1.734-1.012 1.305-.887 1.782.124 1.059.514.829.731.606 1.133.302 2.071-.273 1.914-.477 1.864.156 2.632.169.964-.5.633.146.988-.169.853-.071 1.099-.207.67-.402 1.332-1.364 1.136-1.279 1.478-.657 1.515-1.107.442-.389 1.173-1.035.72-.254 3.016.042.032-2.208.093-2.381.964-3.307.99-3.117.421-1.327.053-.095 1.104-1.981-.564-3.122.36-1.014-.474-.76.445-.879-.794-.506-.445-2.253.824-.794.289-1.912-.763-1.679.426-.62-.074-.365-.5-.577-.101-2.309.13-.259.246-.493.148-.951.643-.871.175-.596.13-1.43.294-1.34.395-.779.111-.458-.033-.618z"/>
  </g>
  <text transform="translate(68 168)" font-size="9" style="font-family:Libre Franklin, Helvetica Neue, Helvetica, Arial, Verdana, sans-serif; font-weight:400; letter-spacing:1px" fill="#333">
    ISRAEL
  </text>

  <circle cx="100.286" cy="122.532" r="4px"></circle>
  <circle class="pulse" cx="100.286" cy="122.532" r="5px"></circle>

  <text transform="translate(125 126)" font-size="12" style="font-family:Libre Franklin, Helvetica Neue, Helvetica, Arial, Verdana, sans-serif; font-weight:600; letter-spacing:1px" fill="#fff">
    TANTUR
  </text>
</svg>
