<svg version="1.1" id="Layer_1" xmlns="http://www.w3.org/2000/svg" x="0" y="0" viewBox="0 0 136 74.7" xml:space="preserve">
	<style>
		.pulse {
			fill: lightgreen;
			<!-- fill-opacity: 0;
			--> <!-- transform-origin: 0 0;
			--> animation-duration: 5s;
			animation-name: pulse;
			animation-iteration-count: infinite;
		}

		@keyframes pulse {
			from {
				fill-opacity: 0;
				<!-- transform: scale(0.9);
				-->;
			}
			to {
				fill-opacity: 1;
				<!-- transform: scale(1);
				-->;
			}
	</style>
	<g class="entireWordmark pulse">
		<g class="ongoing">
			<!-- 1st N in ongoing -->
			<polygon id="oneN" stroke="none" points="32.3,32.2 28.7,22.6 27.5,19.3 27.5,32.2 24.4,32.2 24.4,10.9 27.5,10.9 30.8,20.7 31.9,24 31.9,10.9 34.9,10.9
	34.9,32.2 "/>

			<!-- 1st G in ongoing -->
			<path
				id="oneG"
				d="M48.1,13.4c-3.3,0-4.9,2.2-4.9,4.7v7c0,2.5,1.7,4.6,4.8,4.6c2.8,0,4.4-1.9,4.4-4.1V24h-4.2v-2.9h7.7v11.2h-2l-0.6-2.1
	c-1.2,1.7-3.2,2.8-5.8,2.8c-5.3,0-8-3.7-8-7.9v-6.6c0-4.3,2.9-8,8.5-8c4.7,0,7.8,2.9,7.8,6.5v0.8h-3.5v-0.5
	C52.4,14.8,50.7,13.4,48.1,13.4"/>

			<!-- 2nd O in ongoing -->
			<path d="M71.1,17.1c0-2.2-1.1-3.7-3.5-3.7c-2.4,0-3.5,1.5-3.5,3.7v9c0,2.2,1.1,3.7,3.5,3.7c2.4,0,3.5-1.5,3.5-3.7V17.1z M67.6,32.8
	c-4.8,0-6.9-3-6.9-6.9v-8.6c0-3.9,2.1-6.9,6.9-6.9c4.8,0,6.9,3,6.9,6.9v8.6C74.5,29.8,72.4,32.8,67.6,32.8"/>

			<!-- I in ongoing -->
			<rect x="79.2" y="10.9" width="3.5" height="21.3"/>

			<!-- 2nd N from ongoing -->
			<polygon points="106.6,32.2 92.7,18 91.4,16.4 91.4,32.2 87.4,32.2 87.4,10.9 91.2,10.9 104.7,25.2 106.1,26.7 106.1,10.9
	110.1,10.9 110.1,32.2 "/>

			<!-- First O -->
			<path d="M16.3,15.3c0-1-0.6-1.7-1.7-1.7s-1.7,0.7-1.7,1.7v12.5c0,1,0.6,1.7,1.7,1.7s1.7-0.7,1.7-1.7V15.3z M14.6,32.6
	c-3.1,0-5.1-2.1-5.1-5.1v-12c0-2.9,2-5.1,5.1-5.1s5.1,2.1,5.1,5.1v12C19.7,30.5,17.7,32.6,14.6,32.6"/>
			<!-- 2nd G Ongoing -->
			<path
				d="M123.3,32.2l-0.5-1.4c-0.6,1.2-1.8,1.8-3.3,1.8c-2.8,0-4.6-2-4.6-4.9V15.4c0-2.7,2-4.9,5.1-4.9c3.1,0,4.9,2.2,4.9,4.9v2.9
	h-3.2v-3c0-0.9-0.5-1.6-1.7-1.6c-1.1,0-1.7,0.8-1.7,1.7V28c0,0.9,0.6,1.7,1.7,1.7c1.2,0,1.7-0.8,1.7-1.7v-4h-1.7v-2.4h5v10.7H123.3z
	"/>
		</g>

		<!-- MATTER is grouped below -->
		<g class="matter">
			<polygon points="31.1,43 24,57.3 23,59.5 22,57.3 14.8,43 9.5,43 9.5,64.3 13.2,64.3 13.2,47.6 14.2,49.8 21.7,64.3 24,64.3
		31.6,49.8 32.6,47.6 32.6,64.3 36.4,64.3 36.4,43 	"/>
			<path d="M46.9,47.6l2.1,8.4h-4.1L46.9,47.6z M45.2,43l-5.6,21.3h3.3l1.3-5.5h5.5l1.4,5.5h3.4L48.7,43H45.2z"/>
			<polygon points="76.5,43 76.5,46 82.7,46 82.7,64.3 86.3,64.3 86.3,46 92.5,46 92.5,43 	"/>
			<polygon points="53.2,43 53.2,46 62.6,46 62.6,64.3 66.6,64.3 66.6,46 75.9,46 75.9,43 	"/>
			<polygon points="96,43 96,64.3 104.6,64.3 104.6,61.2 99.4,61.2 99.4,55.4 103,55.4 103,52.6 99.4,52.6 99.4,46 104.6,46 104.6,43
			"/>
			<path
				d="M121.6,48.8c0-1.4-0.9-2.7-3.5-2.7h-6v6.6h6c2.3,0,3.5-1.2,3.5-2.9V48.8z M124.3,64.4c-2,0-2.7-1.2-2.8-3.3l-0.1-2.8
		c-0.1-1.9-0.9-2.9-3.8-2.9h-5.6v8.9h-3.7V43h9.4c5.3,0,7.5,2.3,7.5,5.6v0.7c0,2.3-1,4.1-4.3,4.7c3.3,0.3,4.2,2.2,4.2,4.4l0,2.5
		c0,1.1,0.3,1.7,1.2,2.2v1.3H124.3z"/>
		</g>
	</g>
</svg>
